<?xml version="1.0" encoding="UTF-8"?>
<svg version="1.1" xmlns="http://www.w3.org/2000/svg" width="688" height="688">
<path d="M0 0 C5.3417035 8.01255526 2.57257459 22.51208532 0.9375 31.51171875 C-0.47722081 38.40125696 -2.1912937 45.20456733 -4 52 C-4.3103418 53.17949219 -4.62068359 54.35898437 -4.94042969 55.57421875 C-9.44725864 72.42544055 -14.58373136 88.03302251 -24.87109375 102.30078125 C-26.18413395 104.11643518 -26.18413395 104.11643518 -27 107 C-25.68 107.33 -24.36 107.66 -23 108 C-23 108.66 -23 109.32 -23 110 C-21.515 109.505 -21.515 109.505 -20 109 C-20 109.66 -20 110.32 -20 111 C-19.00355469 111.24878906 -18.00710938 111.49757813 -16.98046875 111.75390625 C4.46881565 117.92306743 19.93205855 136.26057837 30.37060547 155.04125977 C39.44348626 171.80186666 42.00489484 190.27956193 37.4375 209 C33.19101657 222.40296332 26.91598561 232.30701257 17 242 C16.43925781 242.59296875 15.87851562 243.1859375 15.30078125 243.796875 C3.94979597 254.87972677 -13.67312837 259.50809744 -29.02783203 259.42675781 C-35.58103566 259.19447626 -42.12828869 258.00068528 -48 255 C-49.3515625 252.859375 -49.3515625 252.859375 -50 251 C-46.14149165 249.1925521 -42.42237309 248.49473695 -38.26074219 247.80932617 C-21.38030438 244.96015171 -7.47632468 238.57100208 3.1875 224.8125 C12.47480322 211.55798261 15.2541801 196.49469335 12.6015625 180.61474609 C10.62403168 171.69494123 7.53664032 163.33985803 2 156 C1.37609375 155.17242187 0.7521875 154.34484375 0.109375 153.4921875 C-8.74889958 142.76383273 -20.35063576 136.48078122 -33.37890625 132.1953125 C-37 131 -37 131 -39.58984375 129.8046875 C-42.10595688 128.7946023 -43.33405413 128.4334865 -46 129 C-49.22969607 131.41768442 -51.97803385 134.10244958 -54.80859375 136.96484375 C-59.54094961 141.66196023 -65.21923131 144.73513818 -71 148 C-72.23176145 148.70250984 -73.46312016 149.40572627 -74.6940918 150.10961914 C-75.7850415 150.73344482 -76.87599121 151.35727051 -78 152 C-78.22269458 169.0347078 -77.66996384 185.94798011 -76.71716309 202.95452881 C-75.46134239 225.62601024 -74.49991563 248.22367959 -74.96289062 270.93218994 C-75.00165092 273.09199258 -75.02614212 275.25157283 -75.046875 277.41162109 C-75.24708947 298.02199097 -76.4377305 318.40165083 -78.27966309 338.92922974 C-80.06866866 359.16043144 -80.51579641 379.32655202 -80.49609375 399.63208008 C-80.5390304 414.51064343 -81.9372083 428.67442802 -84.53277588 443.32305908 C-85.11881828 446.68076434 -85.61381536 450.04299211 -86.08984375 453.41796875 C-87.85061114 465.47907524 -90.0338606 477.34901465 -92.71484375 489.23828125 C-96.01710495 503.89190886 -98.77813233 518.66695893 -101.5 533.4375 C-101.7077002 534.56341553 -101.91540039 535.68933105 -102.12939453 536.84936523 C-103.36381161 543.54283353 -103.36381161 543.54283353 -104.59277344 550.23730469 C-107.62615833 566.73669772 -111.19451773 583.06902086 -115.12695312 599.37744141 C-115.70026289 601.75629217 -116.26940807 604.13615124 -116.83398438 606.51708984 C-117.60899122 609.7845975 -118.39603298 613.04894521 -119.1875 616.3125 C-119.41300537 617.26592285 -119.63851074 618.2193457 -119.87084961 619.20166016 C-124.94404984 639.76350838 -138.67497794 657.7956822 -156.625 669.0625 C-172.83831687 678.2417317 -189.47411588 683.80700665 -208 686 C-208 686.66 -208 687.32 -208 688 C-214.29881934 688.02541101 -220.59762539 688.04289254 -226.89648438 688.05493164 C-229.03809096 688.05995204 -231.17969414 688.06676969 -233.32128906 688.07543945 C-236.40430546 688.08760549 -239.48727643 688.09325133 -242.5703125 688.09765625 C-244.00034103 688.10539818 -244.00034103 688.10539818 -245.45925903 688.11329651 C-250.10702584 688.11368636 -254.41929355 687.87333645 -259 687 C-260.65966411 686.89558405 -262.3218131 686.82477776 -263.984375 686.7890625 C-302.44820237 685.7076963 -342.38235765 673.95317804 -376.52636719 656.24316406 C-379.1876176 654.90570975 -381.88279585 653.67700815 -384.6015625 652.4609375 C-397.92479847 646.45445974 -409.68024767 639.21206686 -421.55810547 630.72021484 C-424.39398389 628.72245446 -427.28648662 626.83027741 -430.20214844 624.9519043 C-446.24724465 614.58576143 -459.39304308 601.92240711 -470 586 C-470.68449219 585.04996094 -471.36898437 584.09992187 -472.07421875 583.12109375 C-487.62976584 561.43019999 -496.0603804 537.87756495 -503.88671875 512.55859375 C-504.57422807 510.36097623 -505.31428404 508.17810943 -506.13671875 506.02734375 C-507.18522786 502.35044528 -507.22033551 498.90908623 -507.125 495.125 C-507.11597656 494.43664062 -507.10695313 493.74828125 -507.09765625 493.0390625 C-507.07432513 491.35922162 -507.03846326 489.67956254 -507 488 C-508.15886719 488.04382813 -509.31773437 488.08765625 -510.51171875 488.1328125 C-514.84680217 488.12709213 -518.71118525 487.22895482 -522.8125 485.875 C-523.85724487 485.53505005 -523.85724487 485.53505005 -524.9230957 485.18823242 C-547.38731726 477.59129768 -565.76743954 459.68186872 -576.875 439 C-585.28758515 420.95172335 -587.35389375 397.45805722 -581.33203125 378.37109375 C-575.54749964 363.73164866 -575.54749964 363.73164866 -569.5625 359.0625 C-565.99772998 354.8021651 -566.2960788 351.80060173 -566.54296875 346.36328125 C-567.78738261 332.97086782 -570.40469804 319.67881406 -574.42456055 306.84667969 C-575.77571864 302.43010487 -576.46079395 298.61349118 -576 294 C-574.21875239 290.84415616 -571.59532607 288.51285776 -569 286 C-568.38253906 285.37351562 -567.76507812 284.74703125 -567.12890625 284.1015625 C-537.5909623 255.88793183 -489.33094776 237.33374401 -448.79199219 237.7097168 C-441.76562921 237.8894098 -434.91267652 238.72799734 -428 240 C-426.63101563 240.23396484 -426.63101563 240.23396484 -425.234375 240.47265625 C-418.98877046 241.61257487 -412.70500101 243.1474995 -407 246 C-406.35028762 256.33738802 -405.72636042 266.63738802 -406 277 C-406.02682861 278.02843018 -406.02682861 278.02843018 -406.05419922 279.07763672 C-406.70941907 300.92945797 -411.62982032 316.19590039 -425.7265625 333.01171875 C-436.17486706 345.01723363 -436.17486706 345.01723363 -440.22705078 359.68652344 C-440.22689972 360.82740417 -440.22674866 361.96828491 -440.22659302 363.14373779 C-440.21627045 364.36989807 -440.20594788 365.59605835 -440.1953125 366.859375 C-440.1924826 368.11888977 -440.18965271 369.37840454 -440.18673706 370.67608643 C-440.17744121 374.01673902 -440.15948583 377.35711669 -440.1373291 380.69769287 C-440.11683208 384.10963572 -440.10772712 387.52160702 -440.09765625 390.93359375 C-440.07559907 397.62247168 -440.04212367 404.31121997 -440 411 C-441.41201221 411.17196401 -442.82455684 411.33955905 -444.23730469 411.50537109 C-445.02385437 411.5991806 -445.81040405 411.69299011 -446.62078857 411.78964233 C-450.19737277 412.10586556 -453.67768855 411.90192337 -457.25 411.625 C-458.2709375 411.55925781 -458.2709375 411.55925781 -459.3125 411.4921875 C-462.93122456 411.23971834 -466.50095952 410.98657156 -470 410 C-471.25652276 407.48695448 -471.33507647 405.10378604 -471.59570312 402.3371582 C-472.35910183 394.32748962 -473.86240582 387.45502749 -477 380 C-477.37125 378.80375 -477.7425 377.6075 -478.125 376.375 C-478.75152907 373.83895402 -478.75152907 373.83895402 -481 373 C-481.92860539 371.79540044 -482.81927311 370.56131949 -483.6875 369.3125 C-491.06945054 359.32094951 -500.84560983 354.17876392 -513 352 C-523.8327306 350.85315165 -532.66850892 352.4625896 -541.60546875 358.8671875 C-546.239396 362.75273172 -549.39056516 366.55422295 -552 372 C-551.10539063 371.7834375 -550.21078125 371.566875 -549.2890625 371.34375 C-535.6605707 368.20541927 -523.48493521 367.50967606 -510.875 374.625 C-499.58810725 382.02862097 -491.90822477 390.36973469 -488.625 403.75 C-486.85215951 415.11811116 -487.51355638 426.04260577 -491 437 C-497.05878604 436.15615793 -500.83254929 434.377475 -505.015625 429.7890625 C-507.24526713 426.65527415 -508.35402521 423.75078698 -509.625 420.125 C-513.47556284 409.92576618 -519.37111309 397.75200526 -529.171875 392.12890625 C-533.86423685 390.25585021 -538.71225903 388.93280179 -543.6171875 387.73388672 C-547.92715866 386.67583323 -551.2386346 385.45337179 -555 383 C-555.66 383 -556.32 383 -557 383 C-559.50082598 388.79872798 -559.3454226 394.42410025 -559.3125 400.625 C-559.30758545 401.70297852 -559.3026709 402.78095703 -559.29760742 403.89160156 C-559.18816252 411.30691467 -558.63564312 418.01027445 -556 425 C-555.63648438 426.00933594 -555.27296875 427.01867187 -554.8984375 428.05859375 C-549.53537493 441.91605543 -540.55631218 453.30322829 -527 460 C-510.25763218 467.0918333 -494.89944743 468.14096123 -477.3828125 462.875 C-474.09365045 462.02422367 -471.37809213 461.83471109 -468 462 C-468.165 463.03125 -468.33 464.0625 -468.5 465.125 C-472.64176785 500.91729232 -459.29425835 545.73001998 -437.265625 574.41015625 C-429.59365659 584.04747459 -421.06785147 591.93834018 -411 599 C-410.44006348 599.39751465 -409.88012695 599.7950293 -409.30322266 600.20458984 C-349.61830211 642.28034234 -274.57065442 673.60690684 -200.79003906 661.64160156 C-181.14249476 658.19604828 -163.10564842 649.26914263 -151 633 C-146.3323778 624.7156683 -144.03974677 615.66608409 -141.8125 606.5 C-141.62369263 605.73436737 -141.43488525 604.96873474 -141.24035645 604.17990112 C-136.23185172 583.78196122 -132.33257005 563.15848662 -128.43017578 542.52636719 C-127.42307404 537.20938578 -126.40198698 531.89531676 -125.37060547 526.58300781 C-113.17151393 465.74614733 -113.17151393 465.74614733 -107.53515625 404.04296875 C-107.45655127 401.77147845 -107.37776939 399.49999426 -107.29882812 397.22851562 C-107.180325 393.72573843 -107.06364478 390.22292325 -106.95043945 386.7199707 C-106.34331319 368.13874621 -105.54689126 349.58559557 -102.75390625 331.18359375 C-102.55732422 329.88615234 -102.36074219 328.58871094 -102.15820312 327.25195312 C-101.85510864 325.31115468 -101.55109194 323.37038462 -101.22192383 321.43383789 C-99.71332695 314.09933153 -99.71332695 314.09933153 -100.83007812 306.91064453 C-102.1955775 305.06404135 -102.1955775 305.06404135 -105 303 C-106.28003906 301.948125 -106.28003906 301.948125 -107.5859375 300.875 C-124.62927267 289.41729569 -143.38428902 285.000502 -163.60888672 283.1262207 C-164.65061035 283.02140381 -165.69233398 282.91658691 -166.765625 282.80859375 C-167.70180664 282.72407959 -168.63798828 282.63956543 -169.60253906 282.55249023 C-172.36732839 281.91534988 -173.35042755 281.28660517 -175 279 C-175.70396525 274.84660504 -175.87292946 272.50383175 -173.74609375 268.83984375 C-167.35445807 260.90591083 -158.84333499 258.23613974 -149 257 C-132.20666374 255.41781791 -116.09906983 261.94385568 -103 272 C-101.33861129 270.33861129 -101.84714079 268.35225812 -101.82299805 266.06665039 C-101.81016281 265.00946304 -101.79732758 263.9522757 -101.78410339 262.86305237 C-101.77671646 261.70297165 -101.76932953 260.54289093 -101.76171875 259.34765625 C-101.753647 258.14556015 -101.74557526 256.94346405 -101.73725891 255.7049408 C-101.7233741 253.13656061 -101.7126718 250.56816162 -101.70483398 247.99975586 C-101.6934748 245.41962124 -101.67328919 242.83950695 -101.64331055 240.25952148 C-101.35409692 215.36614498 -101.71439215 187.95870496 -115 166 C-115 165.34 -115 164.68 -115 164 C-149.00192448 176.99744978 -179.83737385 193.16179481 -206.30078125 218.4765625 C-208.77839614 220.79282765 -211.32168156 222.92174198 -214 225 C-216.27909288 223.28089559 -218.54791736 221.55053928 -220.8125 219.8125 C-221.45509766 219.32974609 -222.09769531 218.84699219 -222.75976562 218.34960938 C-229.54435325 213.11176712 -229.54435325 213.11176712 -231 209 C-230.97882725 205.56039001 -230.45442138 202.26016598 -229.875 198.875 C-229.72393799 197.93084229 -229.57287598 196.98668457 -229.41723633 196.01391602 C-226.64676267 179.25955965 -221.28839329 166.88111192 -210 154 C-209.42378906 153.27941406 -208.84757812 152.55882812 -208.25390625 151.81640625 C-194.1899396 134.51469188 -170.49537944 125.81966552 -149.46606445 121.03295898 C-114.65676398 113.08047422 -62.30582773 97.27287183 -41.67944336 64.97998047 C-38.36638816 60.31094042 -38.36638816 60.31094042 -37 55 C-37.92039062 55.7734375 -38.84078125 56.546875 -39.7890625 57.34375 C-48.11950418 64.24081833 -56.3847085 69.99649687 -66 75 C-66.60360352 75.32419922 -67.20720703 75.64839844 -67.82910156 75.98242188 C-89.57455246 87.65737353 -113.48942286 95.14954488 -137.25390625 101.515625 C-138.46577103 101.84030258 -138.46577103 101.84030258 -139.70211792 102.17153931 C-143.69970931 103.23846554 -147.70044019 104.29112036 -151.70703125 105.32373047 C-164.65237489 108.69578236 -177.39924729 112.75243395 -189.3125 118.9375 C-189.97145264 119.27467041 -190.63040527 119.61184082 -191.30932617 119.95922852 C-214.31889191 131.91410709 -231.94168385 148.90410114 -240 174 C-242.39756766 183.23387543 -244.05398941 192.51151376 -245 202 C-249.96528432 200.53962226 -254.14072141 198.37878835 -258.625 195.875 C-267.38431878 191.10546714 -276.44889342 187.44513573 -285.74707031 183.87255859 C-288.91300076 182.64639524 -292.05113046 181.36249165 -295.1875 180.0625 C-296.10917969 179.68222656 -297.03085937 179.30195313 -297.98046875 178.91015625 C-300 178 -300 178 -301 177 C-302.46050692 153.03332091 -296.90960513 134.21017939 -281 116 C-280.45988281 115.31679687 -279.91976563 114.63359375 -279.36328125 113.9296875 C-263.71914291 94.61126001 -238.21211411 86.17866641 -214.875 80.75 C-214.23232178 80.59869629 -213.58964355 80.44739258 -212.92749023 80.29150391 C-200.46190587 77.59517196 -187.60325358 76.83872028 -174.90625 76.01220703 C-152.68167818 74.56120065 -130.91042617 72.17077924 -110 64 C-109.04649658 63.63406738 -109.04649658 63.63406738 -108.07373047 63.26074219 C-99.44294739 60.18127952 -99.44294739 60.18127952 -93 54 C-94.12325684 54.18755859 -95.24651367 54.37511719 -96.40380859 54.56835938 C-109.86602689 56.74071611 -123.34455505 58.05868183 -136.92959595 59.19171143 C-140.70124308 59.50636057 -144.47212459 59.82912019 -148.24291992 60.15380859 C-157.3697529 60.93789135 -166.49770124 61.70846273 -175.62646484 62.46972656 C-219.02115288 66.08927185 -264.21821149 71.94416632 -295.0625 106.375 C-310.61437433 125.77143656 -315.72307979 147.7049128 -317 172 C-317.88816406 171.76925781 -318.77632813 171.53851563 -319.69140625 171.30078125 C-335.01965095 167.38751595 -350.47971699 164.05849556 -366 161 C-367.73735787 156.36704567 -368.64052711 151.91558273 -369 147 C-369.09861328 145.73929687 -369.09861328 145.73929687 -369.19921875 144.453125 C-370.13064763 121.19952135 -359.34501369 101.7048291 -344.2578125 84.9140625 C-319.45749015 58.27872918 -280.23673871 44.12571882 -244.484375 42.5859375 C-241.90648674 42.50742314 -239.3283337 42.43719096 -236.75 42.375 C-235.4075304 42.33669011 -234.06508194 42.29763159 -232.72265625 42.2578125 C-229.48190024 42.16455333 -226.24113534 42.07875536 -223 42 C-225.70413912 38.18331654 -225.70413912 38.18331654 -229.72265625 36.07421875 C-271.5609048 31.22978997 -310.14355008 39.02908728 -344.1640625 64.35546875 C-346.84670372 66.50232075 -349.43991665 68.70895661 -352 71 C-352.69222656 71.60972656 -353.38445312 72.21945313 -354.09765625 72.84765625 C-368.81210567 86.62599756 -382.34978258 109.55319844 -383.11352539 130.04614258 C-383.10828857 131.15111084 -383.10305176 132.2560791 -383.09765625 133.39453125 C-383.09443359 134.59658203 -383.09121094 135.79863281 -383.08789062 137.03710938 C-383.07951172 138.28298828 -383.07113281 139.52886719 -383.0625 140.8125 C-383.05573242 142.71032227 -383.05573242 142.71032227 -383.04882812 144.64648438 C-383.03706251 147.7643711 -383.02062272 150.88216133 -383 154 C-390.91921964 152.87515076 -398.6851404 151.53571683 -406.4375 149.5625 C-407.28248047 149.35818359 -408.12746094 149.15386719 -408.99804688 148.94335938 C-419.99340976 146.1837726 -419.99340976 146.1837726 -423.76953125 142.07421875 C-431.34975005 129.29613563 -428.77062148 111.07365466 -425.58642578 97.19335938 C-420.09873614 76.6682121 -405.0767926 59.35117156 -390 45 C-389.67 44.67 -389.34 44.34 -389 44 C-406.67929503 52.20289324 -422.63567216 66.33950938 -431 84 C-431.29148926 84.60650391 -431.58297852 85.21300781 -431.88330078 85.83789062 C-438.26815288 99.24240482 -441.65805661 112.03997662 -442 127 C-442.02578125 128.05574219 -442.0515625 129.11148438 -442.078125 130.19921875 C-441.90085971 137.12142834 -440.17627216 140.84967117 -435.97265625 146.26171875 C-428.73670556 156.30607802 -425.52610877 168.05982126 -423 180 C-427.82493125 179.35585 -432.54646052 178.50655533 -437.3125 177.5 C-481.41768738 168.55073097 -530.05589338 181.46154343 -567.3359375 205.5234375 C-572.14192881 208.7099372 -576.6284748 212.2379663 -581 216 C-581.66 215.67 -582.32 215.34 -583 215 C-576.30515997 189.96557158 -562.74513651 166.17094043 -539.8125 152.5546875 C-532.7871072 148.67120648 -526.12666781 145.24815544 -518.375 143.0625 C-513.97030947 141.78000026 -513.97030947 141.78000026 -511.4375 138.125 C-511.25953427 136.75378865 -511.11988524 135.37750495 -511 134 C-505.56136234 103.55927984 -487.90922801 80.73162041 -463 63 C-461.96746094 62.26136719 -460.93492187 61.52273437 -459.87109375 60.76171875 C-420.41130775 34.02783244 -371.70410517 24.11685001 -325 20 C-324.2589502 19.92942383 -323.51790039 19.85884766 -322.75439453 19.78613281 C-278.71862978 15.65880351 -234.9203606 22.42822784 -191.76538086 30.44851685 C-162.05150883 35.9779642 -162.05150883 35.9779642 -132 39 C-130.8965625 39.06477539 -129.793125 39.12955078 -128.65625 39.19628906 C-122.30121792 39.54428537 -115.94968381 39.7902789 -109.58691406 39.93701172 C-107.38707576 39.99057517 -105.19070263 40.06945467 -102.9921875 40.16015625 C-67.26610998 41.07928352 -32.52190317 30.24971649 -6 6 C-5.13955078 5.09701172 -5.13955078 5.09701172 -4.26171875 4.17578125 C-3 3 -3 3 -1 3 C-0.67 2.01 -0.34 1.02 0 0 Z " fill="#11161D" transform="translate(616,0)"/>
<path d="M0 0 C3.6450359 1.99609109 5.6830181 4.79413573 7.625 8.4375 C7.625 9.0975 7.625 9.7575 7.625 10.4375 C8.615 10.7675 9.605 11.0975 10.625 11.4375 C13.11001049 16.60818363 12.89960737 21.77767221 12.85546875 27.3828125 C12.85501053 28.34790741 12.85455231 29.31300232 12.8540802 30.30734253 C12.85106401 32.35318224 12.84319669 34.39901978 12.83081055 36.44482422 C12.81284553 39.50366826 12.81029927 42.56220304 12.81054688 45.62109375 C12.79408239 55.35446293 12.64853198 65.07942641 12.23828125 74.8046875 C12.20816452 75.64967804 12.17804779 76.49466858 12.14701843 77.36526489 C11.86150352 83.20099648 11.86150352 83.20099648 9.625 85.4375 C7.63330078 85.19970703 7.63330078 85.19970703 5.1953125 84.5703125 C-0.4365047 83.30776406 -5.75011606 83.20751616 -11.5 83.3125 C-12.45648438 83.32152344 -13.41296875 83.33054687 -14.3984375 83.33984375 C-16.72423525 83.36310173 -19.04947294 83.39577787 -21.375 83.4375 C-16.82186992 91.69163805 -12.02445962 99.67716295 -6.70166016 107.46118164 C-1.29811129 115.38559697 -1.29811129 115.38559697 -1.55859375 118.94921875 C-2.99780403 123.33571134 -6.23672064 126.15240055 -9.375 129.4375 C-9.96410156 130.07816406 -10.55320312 130.71882812 -11.16015625 131.37890625 C-23.19842601 144.03059103 -38.63965282 153.29209353 -53.375 162.4375 C-54.38820313 163.07171875 -55.40140625 163.7059375 -56.4453125 164.359375 C-60.744484 165.94147011 -64.77047534 165.83392507 -69.3125 165.75 C-70.18068359 165.75322266 -71.04886719 165.75644531 -71.94335938 165.75976562 C-77.12596947 165.71667514 -81.4684129 165.11308281 -86.375 163.4375 C-86.66605277 160.47080427 -86.77882295 158.96608126 -84.93359375 156.55078125 C-78.50433614 151.09242442 -71.62317114 146.4743087 -64.57128906 141.87939453 C-60.47695518 139.19140699 -56.42497575 136.44168825 -52.375 133.6875 C-51.58625488 133.15680908 -50.79750977 132.62611816 -49.98486328 132.0793457 C-39.57923504 125.23114045 -39.57923504 125.23114045 -32.375 115.4375 C-32.46695473 109.36848762 -35.25903309 104.35297178 -38.3515625 99.28515625 C-39.375 97.4375 -39.375 97.4375 -39.375 95.4375 C-40.365 94.9425 -40.365 94.9425 -41.375 94.4375 C-42.22998047 92.76879883 -42.22998047 92.76879883 -43.1171875 90.58203125 C-45.54916994 84.88974983 -48.50138383 79.53491214 -51.5 74.125 C-52.56566921 72.19171761 -53.63079538 70.25813576 -54.6953125 68.32421875 C-55.16211426 67.48076904 -55.62891602 66.63731934 -56.10986328 65.76831055 C-60.10914347 58.40028122 -60.57546127 51.91654577 -60.625 43.625 C-60.645625 42.77357422 -60.66625 41.92214844 -60.6875 41.04492188 C-60.72439962 34.98877163 -59.63177118 30.05134594 -57.375 24.4375 C-51.85310411 24.5755474 -49.02312141 26.91924091 -45.14453125 30.5234375 C-42.47945782 33.40618801 -40.375 36.41897547 -40.375 40.4375 C-39.385 40.9325 -39.385 40.9325 -38.375 41.4375 C-37.25 43.5 -37.25 43.5 -36.375 45.4375 C-36.375 43.4575 -36.375 41.4775 -36.375 39.4375 C-35.715 39.4375 -35.055 39.4375 -34.375 39.4375 C-34.375 34.1575 -34.375 28.8775 -34.375 23.4375 C-33.715 23.4375 -33.055 23.4375 -32.375 23.4375 C-32.354375 22.48875 -32.33375 21.54 -32.3125 20.5625 C-31.35326546 13.82045152 -26.22296091 7.77930048 -21.1875 3.4375 C-14.33807605 -1.43320148 -8.1886056 -1.3647676 0 0 Z " fill="#12171E" transform="translate(466.375,317.5625)"/>
<path d="M0 0 C0.495 0.99 0.495 0.99 1 2 C1.969375 2.0825 2.93875 2.165 3.9375 2.25 C10.32235113 2.96383429 16.78787547 7.23846793 21 12 C21.875 13.875 21.875 13.875 22 16 C20.6007781 18.79844381 19.21208617 20.78791383 17 23 C8.37899645 24.66370244 -0.30775415 23.64867506 -9 23 C-6.07401335 29.14881253 -2.53968971 33.0686073 3 37 C3.70125 37.53625 4.4025 38.0725 5.125 38.625 C6.95391883 40.04708294 6.95391883 40.04708294 9 41 C9 41.66 9 42.32 9 43 C9.86625 43.185625 9.86625 43.185625 10.75 43.375 C14.24064524 44.34462368 16.45494852 45.43791566 19 48.0625 C21.07852616 50.07607222 22.18768658 50.59824094 25 51 C25 51.66 25 52.32 25 53 C25.70640625 53.2784375 26.4128125 53.556875 27.140625 53.84375 C30.03447138 55.01393924 32.89628941 56.23511206 35.75 57.5 C36.71421875 57.9228125 37.6784375 58.345625 38.671875 58.78125 C41 60 41 60 42 62 C43.99822272 62.70113078 46.00228886 63.38752128 48.0234375 64.01953125 C50.93259233 64.97779616 53.78500671 66.04744358 56.64208984 67.15014648 C73.826269 73.76496837 91.54155444 78.23763617 110 79 C111.24652344 79.05285156 112.49304688 79.10570312 113.77734375 79.16015625 C135.1342315 79.75482103 157.0805875 75.729761 176.73046875 67.3671875 C179.78595639 66.0895045 182.84582917 65.00512272 186 64 C190.78926391 77.75720828 190.78926391 77.75720828 189.375 82 C178.36021813 95.91340868 152.98988351 99.83012216 136.3125 102.3125 C101.81072304 105.92597916 66.35490934 99.97188316 35 85 C34.67 84.34 34.34 83.68 34 83 C33.15695312 82.71898437 32.31390625 82.43796875 31.4453125 82.1484375 C27.27448035 80.75816012 23.68669403 78.7889673 19.875 76.625 C19.17246094 76.23828125 18.46992188 75.8515625 17.74609375 75.453125 C13.94299766 73.31073817 11.03650235 71.17643333 8 68 C7.01 67.67 6.02 67.34 5 67 C3.33333333 65.33333333 1.66666667 63.66666667 0 62 C-1.93330603 60.90833725 -1.93330603 60.90833725 -4 60 C-8.4772271 57.40320828 -10.29594851 55.84999271 -12 51 C-12.99 50.67 -13.98 50.34 -15 50 C-15.48014795 48.42237101 -15.94377629 46.83803686 -16.328125 45.234375 C-17.44550314 41.51844303 -19.2566888 38.1180093 -20.9765625 34.6484375 C-22.04401506 31.88609843 -22.2010808 29.93154639 -22 27 C-24.31589004 28.20218798 -26.6283576 29.40994996 -28.9375 30.625 C-29.62247559 30.98529297 -30.30745117 31.34558594 -31.01318359 31.71679688 C-35.60992677 34.16868254 -39.90557129 36.82428676 -44.0703125 39.96875 C-46.53895155 41.28802269 -48.23945916 41.29106197 -51 41 C-53.84492528 38.64557908 -54.00122202 36.98970015 -54.4375 33.3125 C-54.16882151 26.7543023 -51.04910415 20.31112729 -46.6640625 15.46875 C-33.12662992 3.52021795 -17.33751994 0.86801813 0 0 Z " fill="#0D121A" transform="translate(274,442)"/>
<path d="M0 0 C2.45490484 3.50409494 3.63655988 6.74045129 4.60546875 10.88671875 C4.86650391 11.98951172 5.12753906 13.09230469 5.39648438 14.22851562 C5.65751953 15.36998047 5.91855469 16.51144531 6.1875 17.6875 C6.46013672 18.84056641 6.73277344 19.99363281 7.01367188 21.18164062 C9 29.66958412 9 29.66958412 9 32 C4.24584043 31.49705439 -0.15570045 30.75041995 -4.77954102 29.48828125 C-38.45268919 20.63745726 -75.42781003 30.33361157 -106 45 C-106.804375 45.37640625 -107.60875 45.7528125 -108.4375 46.140625 C-124.82251752 53.82110196 -139.58015635 63.30445581 -153.8125 74.453125 C-156 76 -156 76 -158 76 C-158.38091797 74.47632813 -158.38091797 74.47632813 -158.76953125 72.921875 C-158.93485352 72.26106934 -159.10017578 71.60026367 -159.27050781 70.91943359 C-159.63405584 69.46425894 -159.99667504 68.00885195 -160.35839844 66.55322266 C-161.19579157 63.18808794 -162.04537095 59.82876738 -162.93359375 56.4765625 C-163.20300781 55.45304687 -163.47242188 54.42953125 -163.75 53.375 C-163.99234375 52.47523438 -164.2346875 51.57546875 -164.484375 50.6484375 C-165.22194669 46.86000111 -165.70997827 43.51808363 -164.0390625 39.9453125 C-141.73009229 11.22713538 -98.75122039 -2.90738078 -64.03515625 -7.30859375 C-43.84277035 -9.51216701 -18.29989894 -10.64209507 0 0 Z " fill="#10141B" transform="translate(197,197)"/>
<path d="M0 0 C1.125 1.875 1.125 1.875 2 4 C2.66 4.721875 3.32 5.44375 4 6.1875 C9.23738984 13.55257946 8.31107585 23.4197217 8.25 32.0625 C8.24822754 32.7224295 8.24645508 33.38235901 8.24462891 34.06228638 C8.19581497 49.74634588 7.17374781 65.36511721 6 81 C-2.24210526 80.15603715 -2.24210526 80.15603715 -5.65625 79.453125 C-14.61728681 77.72065788 -23.55478209 78.99979169 -32.2578125 81.34375 C-35 82 -35 82 -39 82 C-40.47117485 62.03405567 -40.09463973 42.00538284 -40 22 C-39.34 22 -38.68 22 -38 22 C-38 20.02 -38 18.04 -38 16 C-37.34 16 -36.68 16 -36 16 C-35.92007812 15.27941406 -35.84015625 14.55882812 -35.7578125 13.81640625 C-34.04761343 7.46046021 -27.77224933 1.73262325 -22.1875 -1.5625 C-14.65554127 -4.9592657 -7.04940034 -4.64228803 0 0 Z " fill="#0E131B" transform="translate(303,321)"/>
<path d="M0 0 C3.44139338 3.44139338 4.3381162 5.04304583 4.875 9.875 C4.42230438 14.25105769 3.36419662 16.18356181 0.5 19.5 C-4.12393111 22.34367969 -7.65157145 22.87703871 -13.0390625 22.90625 C-14.5120461 22.92597088 -15.98502781 22.94583296 -17.45800781 22.96582031 C-18.2206897 22.97085571 -18.98337158 22.97589111 -19.76916504 22.9810791 C-48.63967753 23.21295274 -78.1756379 26.9698726 -101.4921875 45.93359375 C-102.15476563 46.45050781 -102.81734375 46.96742188 -103.5 47.5 C-104.49 47.17 -105.48 46.84 -106.5 46.5 C-107.13415887 33.72287313 -103.90018341 26.23009936 -95.5 16.5 C-73.62200004 -4.93474092 -27.30043672 -21.37986008 0 0 Z " fill="#10151D" transform="translate(347.5,256.5)"/>
<path d="M0 0 C0.33 0 0.66 0 1 0 C1.05384521 2.29141286 1.09272087 4.58318188 1.125 6.875 C1.14820313 8.15117187 1.17140625 9.42734375 1.1953125 10.7421875 C1 14 1 14 -1 16 C-2.71484375 15.79296875 -2.71484375 15.79296875 -4.9375 15.1875 C-13.14668792 13.30799612 -21.61545385 13.32711782 -30 13 C-30 12.67 -30 12.34 -30 12 C-28.87980469 11.93941406 -27.75960938 11.87882812 -26.60546875 11.81640625 C-25.13280016 11.73198576 -23.66014456 11.64733851 -22.1875 11.5625 C-21.44951172 11.52318359 -20.71152344 11.48386719 -19.95117188 11.44335938 C-16.76928658 11.25618965 -14.03837622 11.01279207 -11 10 C-10.67 10.66 -10.34 11.32 -10 12 C-7.36 12 -4.72 12 -2 12 C-1.90912109 10.95199219 -1.90912109 10.95199219 -1.81640625 9.8828125 C-1.73261719 8.97273438 -1.64882813 8.06265625 -1.5625 7.125 C-1.48128906 6.22007812 -1.40007812 5.31515625 -1.31640625 4.3828125 C-1 2 -1 2 0 0 Z " fill="#202425" transform="translate(477,387)"/>
<path d="M0 0 C0.33 0 0.66 0 1 0 C1.91987611 10.36503256 2.1132812 20.60330359 2 31 C1.67 31 1.34 31 1 31 C0.93941406 30.39671875 0.87882813 29.7934375 0.81640625 29.171875 C0.73261719 28.37265625 0.64882813 27.5734375 0.5625 26.75 C0.48128906 25.96109375 0.40007813 25.1721875 0.31640625 24.359375 C0.07085586 22.07245901 0.07085586 22.07245901 -0.52734375 20.2109375 C-1.25887712 16.78905411 -1.14368797 13.35719161 -1.125 9.875 C-1.12886719 9.14667969 -1.13273438 8.41835937 -1.13671875 7.66796875 C-1.12671034 2.25342069 -1.12671034 2.25342069 0 0 Z " fill="#08080B" transform="translate(536,179)"/>
<path d="M0 0 C0.66 0.33 1.32 0.66 2 1 C0.68 2.32 -0.64 3.64 -2 5 C-2.66 4.67 -3.32 4.34 -4 4 C-2.68 2.68 -1.36 1.36 0 0 Z M-6 5 C-5.34 5 -4.68 5 -4 5 C-5.20539262 9.97224455 -8.31940707 12.25951825 -12.125 15.3515625 C-14.22049915 17.05056095 -14.22049915 17.05056095 -16 20 C-16.66 19.67 -17.32 19.34 -18 19 C-16.18804029 16.85370835 -14.37545906 14.70794722 -12.5625 12.5625 C-12.04623047 11.95083984 -11.52996094 11.33917969 -10.99804688 10.70898438 C-7.11328125 6.11328125 -7.11328125 6.11328125 -6 5 Z " fill="#2A2A2F" transform="translate(348,103)"/>
<path d="M0 0 C0.33 0 0.66 0 1 0 C1.33 1.65 1.66 3.3 2 5 C3.65 5.33 5.3 5.66 7 6 C3.62722811 9.66186662 1.77737198 11.08905121 -3 13 C-2.01 8.71 -1.02 4.42 0 0 Z " fill="#383D43" transform="translate(36,203)"/>
<path d="M0 0 C3 1 3 1 4 3 C4.039992 4.99960012 4.04346799 7.00047242 4 9 C4.66 9 5.32 9 6 9 C6.375 11.1875 6.375 11.1875 6 14 C4.16038352 15.99022836 2.20813852 17.38989899 0 19 C0.309375 18.443125 0.61875 17.88625 0.9375 17.3125 C3.06688645 12.67795302 3.1722943 9.5168829 1.5625 4.6875 C1.27503906 3.80449219 0.98757813 2.92148437 0.69140625 2.01171875 C0.46324219 1.34785156 0.23507812 0.68398438 0 0 Z " fill="#363836" transform="translate(431,420)"/>
<path d="M0 0 C0.33 0 0.66 0 1 0 C1.45452339 5.68154235 0.66636232 8.60036521 -3 13 C-3.99 13.33 -4.98 13.66 -6 14 C-5.67 13.278125 -5.34 12.55625 -5 11.8125 C-3.99396471 8.98302573 -3.83022598 6.97104534 -4 4 C-3.01 3.67 -2.02 3.34 -1 3 C-0.67 2.01 -0.34 1.02 0 0 Z " fill="#322E34" transform="translate(351,263)"/>
<path d="M0 0 C0.66 0 1.32 0 2 0 C2.48220263 1.87422152 2.96061833 3.74941754 3.4375 5.625 C3.70433594 6.66914063 3.97117188 7.71328125 4.24609375 8.7890625 C4.96452539 11.84891124 5.51976716 14.8948051 6 18 C5.34 18 4.68 18 4 18 C1.72942897 11.95942424 0.51085812 6.43681228 0 0 Z " fill="#26282D" transform="translate(55,413)"/>
<path d="M0 0 C1.65 0.33 3.3 0.66 5 1 C4.01 1.5259375 4.01 1.5259375 3 2.0625 C0.62807031 3.94674739 0.62807031 3.94674739 0.625 7.5 C0.73859137 11.10936483 0.73859137 11.10936483 3 14 C-1.75 12.125 -1.75 12.125 -4 11 C-3.52269162 9.5410574 -3.04308958 8.08286504 -2.5625 6.625 C-2.29566406 5.81289063 -2.02882812 5.00078125 -1.75390625 4.1640625 C-1 2 -1 2 0 0 Z " fill="#757476" transform="translate(63,371)"/>
<path d="M0 0 C0.33 0.66 0.66 1.32 1 2 C2.65 2 4.3 2 6 2 C6 2.33 6 2.66 6 3 C3.60468244 3.33745354 1.20885732 3.6700829 -1.1875 4 C-2.19780273 4.14308594 -2.19780273 4.14308594 -3.22851562 4.2890625 C-6.84664577 4.78324613 -10.34796401 5.11346131 -14 5 C-14 4.34 -14 3.68 -14 3 C-12.60974609 2.80083984 -12.60974609 2.80083984 -11.19140625 2.59765625 C-9.99386719 2.42105469 -8.79632813 2.24445313 -7.5625 2.0625 C-6.36753906 1.88847656 -5.17257812 1.71445312 -3.94140625 1.53515625 C-1.12044324 1.31014787 -1.12044324 1.31014787 0 0 Z " fill="#2F3231" transform="translate(406,62)"/>
<path d="M0 0 C0.33 0 0.66 0 1 0 C1.25398309 4.29057953 1.47398533 8.58223134 1.6875 12.875 C1.76033203 14.09832031 1.83316406 15.32164062 1.90820312 16.58203125 C1.96298828 17.74863281 2.01777344 18.91523438 2.07421875 20.1171875 C2.13182373 21.19597168 2.18942871 22.27475586 2.2487793 23.38623047 C2.12563354 24.68004639 2.12563354 24.68004639 2 26 C1.01 26.66 0.02 27.32 -1 28 C-0.67 18.76 -0.34 9.52 0 0 Z " fill="#1D2324" transform="translate(509,407)"/>
<path d="M0 0 C3.21043882 1.38188453 5.04936365 2.92421903 7.25 5.625 C8.03117187 6.57246094 8.03117187 6.57246094 8.828125 7.5390625 C9.40820312 8.26222656 9.40820312 8.26222656 10 9 C6.7093077 9 5.92713 8.56982633 3.3125 6.75 C2.68988281 6.33234375 2.06726563 5.9146875 1.42578125 5.484375 C0 4 0 4 0 0 Z " fill="#E5EBF4" transform="translate(264,494)"/>
<path d="M0 0 C-2 3 -2 3 -4.09375 3.58203125 C-5.28484375 3.69611328 -5.28484375 3.69611328 -6.5 3.8125 C-7.2940625 3.90144531 -8.088125 3.99039063 -8.90625 4.08203125 C-11 4 -11 4 -13 2 C-11.5882217 1.46605821 -10.17029756 0.94834896 -8.75 0.4375 C-7.96109375 0.14746094 -7.1721875 -0.14257812 -6.359375 -0.44140625 C-3.80896548 -1.04522837 -2.44677771 -0.8473932 0 0 Z " fill="#242524" transform="translate(221,34)"/>
<path d="M0 0 C3.63 0.33 7.26 0.66 11 1 C10.01 2.485 10.01 2.485 9 4 C5.7 3.67 2.4 3.34 -1 3 C-0.67 2.01 -0.34 1.02 0 0 Z " fill="#1D2225" transform="translate(389,25)"/>
<path d="M0 0 C0.66 0 1.32 0 2 0 C2.33 0.66 2.66 1.32 3 2 C3.99 2.66 4.98 3.32 6 4 C-5.385 3.505 -5.385 3.505 -17 3 C-17 2.67 -17 2.34 -17 2 C-15.85660156 1.93941406 -14.71320313 1.87882812 -13.53515625 1.81640625 C-12.04425695 1.73201572 -10.55337225 1.64736698 -9.0625 1.5625 C-8.30775391 1.52318359 -7.55300781 1.48386719 -6.77539062 1.44335938 C-3.08055813 1.55961976 -3.08055813 1.55961976 0 0 Z " fill="#535354" transform="translate(464,397)"/>
<path d="M0 0 C-0.33 0.66 -0.66 1.32 -1 2 C-6.3922614 3.33070829 -11.60270744 3.03352411 -17 2 C-17 1.67 -17 1.34 -17 1 C-11.30494264 0.3583034 -5.73266804 -0.12462322 0 0 Z " fill="#353737" transform="translate(541,39)"/>
<path d="M0 0 C0.66 0 1.32 0 2 0 C0.33333333 5 -1.33333333 10 -3 15 C-3.33 15 -3.66 15 -4 15 C-4 12.69 -4 10.38 -4 8 C-3.34 8 -2.68 8 -2 8 C-2 6.68 -2 5.36 -2 4 C-1.34 4 -0.68 4 0 4 C-0.33 3.01 -0.66 2.02 -1 1 C-0.67 0.67 -0.34 0.34 0 0 Z " fill="#47443D" transform="translate(180,88)"/>
<path d="M0 0 C1.29312675 2.5862535 0.84290464 3.76416975 0.25 6.5625 C0.01023437 7.77099609 0.01023437 7.77099609 -0.234375 9.00390625 C-0.61335937 9.99197266 -0.61335937 9.99197266 -1 11 C-1.99 11.33 -2.98 11.66 -4 12 C-3.71788123 10.3733152 -3.42397625 8.74867104 -3.125 7.125 C-2.96257813 6.22007812 -2.80015625 5.31515625 -2.6328125 4.3828125 C-2 2 -2 2 0 0 Z " fill="#202225" transform="translate(631,200)"/>
<path d="M0 0 C0.66 0.66 1.32 1.32 2 2 C1.7578125 4.3828125 1.7578125 4.3828125 1.125 7.125 C0.92132813 8.03507813 0.71765625 8.94515625 0.5078125 9.8828125 C0.34023437 10.58148438 0.17265625 11.28015625 0 12 C-0.66 12 -1.32 12 -2 12 C-1.85831863 10.56208484 -1.71148957 9.1246763 -1.5625 7.6875 C-1.48128906 6.88699219 -1.40007812 6.08648437 -1.31640625 5.26171875 C-1 3 -1 3 0 0 Z " fill="#292D2F" transform="translate(108,120)"/>
<path d="M0 0 C0 3 0 3 -1.53125 4.60546875 C-2.1809375 5.12753906 -2.830625 5.64960938 -3.5 6.1875 C-4.1496875 6.71730469 -4.799375 7.24710937 -5.46875 7.79296875 C-5.9740625 8.19128906 -6.479375 8.58960938 -7 9 C-7.66 8.67 -8.32 8.34 -9 8 C-6.14723863 5.06799526 -3.34920216 2.35684596 0 0 Z " fill="#262532" transform="translate(235,452)"/>
<path d="M0 0 C0 3.77910478 -0.99703962 4.46106101 -3.5 7.1875 C-4.1496875 7.90292969 -4.799375 8.61835937 -5.46875 9.35546875 C-5.9740625 9.89816406 -6.479375 10.44085938 -7 11 C-7.66 10.67 -8.32 10.34 -9 10 C-7.8758824 8.70756532 -6.75067408 7.41607925 -5.625 6.125 C-4.99851562 5.40570313 -4.37203125 4.68640625 -3.7265625 3.9453125 C-2.52573166 2.5923402 -1.2791655 1.2791655 0 0 Z " fill="#242425" transform="translate(275,82)"/>
<path d="M0 0 C0.66 0 1.32 0 2 0 C3.38938077 1.96147874 4.7260411 3.96166576 6 6 C5.67 6.66 5.34 7.32 5 8 C4.01 7.67 3.02 7.34 2 7 C0.8125 3.4375 0.8125 3.4375 0 0 Z " fill="#DBE1EE" transform="translate(257,485)"/>
<path d="M0 0 C1.1875 1.5625 1.1875 1.5625 2 4 C0.625 7.75 0.625 7.75 -1 11 C-1.99 11 -2.98 11 -4 11 C-3.525625 10.29875 -3.05125 9.5975 -2.5625 8.875 C-0.91260143 5.83918663 -0.39631536 3.40831214 0 0 Z " fill="#514F4C" transform="translate(462,516)"/>
<path d="M0 0 C0.66 0.33 1.32 0.66 2 1 C-1.01887244 4.48331435 -3.56909529 5.79157144 -8 7 C-3.76744186 1.25581395 -3.76744186 1.25581395 0 0 Z " fill="#282528" transform="translate(450,318)"/>
<path d="M0 0 C1.98 0.99 3.96 1.98 6 3 C6 3.66 6 4.32 6 5 C6.66 5.33 7.32 5.66 8 6 C6.68 6.33 5.36 6.66 4 7 C0 2.25 0 2.25 0 0 Z " fill="#2B3739" transform="translate(191,138)"/>
<path d="M0 0 C0 3 0 3 -2.375 5.625 C-5 8 -5 8 -7 9 C-6.82374165 6.62051228 -6.30280227 5.29774151 -4.59765625 3.62109375 C-3.09350908 2.37884514 -1.54870149 1.18623944 0 0 Z " fill="#24262C" transform="translate(609,7)"/>
<path d="M0 0 C0 0.66 0 1.32 0 2 C-0.7425 2.28875 -1.485 2.5775 -2.25 2.875 C-4.56739797 3.82302644 -6.77917115 4.84845911 -9 6 C-9.66 5.34 -10.32 4.68 -11 4 C-9.5437455 3.32880451 -8.08492133 2.66318193 -6.625 2 C-5.81289062 1.62875 -5.00078125 1.2575 -4.1640625 0.875 C-2 0 -2 0 0 0 Z " fill="#272930" transform="translate(249,446)"/>
<path d="M0 0 C1.45792884 -0.05399736 2.91642712 -0.09279177 4.375 -0.125 C5.18710938 -0.14820313 5.99921875 -0.17140625 6.8359375 -0.1953125 C9 0 9 0 11 2 C6.70700357 3.26264601 4.12168689 2.62950412 0 1 C0 0.67 0 0.34 0 0 Z " fill="#222523" transform="translate(102,350)"/>
<path d="M0 0 C2 1 2 1 2 1 Z M-4 1 C-1.13275314 1.57344937 -0.1385485 1.8614515 2 4 C-0.64 4.33 -3.28 4.66 -6 5 C-5.34 3.68 -4.68 2.36 -4 1 Z " fill="#05080D" transform="translate(225,32)"/>
<path d="M0 0 C0.66 0.33 1.32 0.66 2 1 C0.90554162 1.86657116 -0.20097781 2.71792724 -1.3125 3.5625 C-1.92738281 4.03816406 -2.54226563 4.51382813 -3.17578125 5.00390625 C-3.77777344 5.33261719 -4.37976563 5.66132813 -5 6 C-5.99 5.67 -6.98 5.34 -8 5 C-5.31158141 2.74754119 -3.35358125 1.11786042 0 0 Z " fill="#1C1C22" transform="translate(420,142)"/>
<path d="M0 0 C3.16115776 1.36983503 3.9927092 1.9890638 6 5 C4.68 5.33 3.36 5.66 2 6 C1.34 4.02 0.68 2.04 0 0 Z " fill="#2B2C2B" transform="translate(289,450)"/>
<path d="M0 0 C3.36720387 1.39332574 4.9859524 2.9789286 7 6 C4.69 5.34 2.38 4.68 0 4 C0 2.68 0 1.36 0 0 Z " fill="#2C2F34" transform="translate(415,344)"/>
<path d="M0 0 C0.66 0 1.32 0 2 0 C2 0.66 2 1.32 2 2 C3.65 2.33 5.3 2.66 7 3 C7.33 3.99 7.66 4.98 8 6 C5.0280615 4.87548273 2.66559313 3.77706209 0 2 C0 1.34 0 0.68 0 0 Z " fill="#323133" transform="translate(499,293)"/>
<path d="M0 0 C1.67542976 0.28604898 3.34385343 0.61781233 5 1 C3.3545622 2.68762851 1.68711423 4.3540349 0 6 C-0.33 6 -0.66 6 -1 6 C-1.042721 4.33388095 -1.04063832 2.66617115 -1 1 C-0.67 0.67 -0.34 0.34 0 0 Z " fill="#2C2A33" transform="translate(38,208)"/>
<path d="M0 0 C0.66 0 1.32 0 2 0 C2.33 1.98 2.66 3.96 3 6 C0.69 5.67 -1.62 5.34 -4 5 C-2.68 4.34 -1.36 3.68 0 3 C0 2.01 0 1.02 0 0 Z " fill="#373738" transform="translate(190,174)"/>
<path d="M0 0 C0.66 0 1.32 0 2 0 C0.55746343 3.36591866 -1.33264727 5.51047079 -4 8 C-4 6.68 -4 5.36 -4 4 C-3.34 4 -2.68 4 -2 4 C-1.34 2.68 -0.68 1.36 0 0 Z " fill="#282728" transform="translate(394,138)"/>
<path d="M0 0 C1.125 1.75 1.125 1.75 2 4 C1.125 6.25 1.125 6.25 0 8 C-0.99 8 -1.98 8 -3 8 C-1.125 2.25 -1.125 2.25 0 0 Z " fill="#201F23" transform="translate(323,133)"/>
<path d="M0 0 C-1 3 -1 3 -3.375 4.75 C-6 6 -6 6 -9 5 C-2.40909091 0 -2.40909091 0 0 0 Z " fill="#2A2B28" transform="translate(351,81)"/>
<path d="M0 0 C0.66 0 1.32 0 2 0 C2 3.63 2 7.26 2 11 C1.01 9.68 0.02 8.36 -1 7 C-0.6875 4.9375 -0.6875 4.9375 0 3 C0 2.01 0 1.02 0 0 Z " fill="#B1B3B5" transform="translate(430,357)"/>
<path d="M0 0 C1.0326802 2.78823655 1.04509293 3.8677274 0.0625 6.75 C-0.288125 7.4925 -0.63875 8.235 -1 9 C-1.33 9 -1.66 9 -2 9 C-2.25 3.375 -2.25 3.375 0 0 Z " fill="#2C3134" transform="translate(34,236)"/>
<path d="M0 0 C0.66 0 1.32 0 2 0 C2.1875 2.8125 2.1875 2.8125 2 6 C1.01 6.99 0.02 7.98 -1 9 C-0.67 6.03 -0.34 3.06 0 0 Z " fill="#282A2E" transform="translate(389,183)"/>
<path d="M0 0 C-2.96687001 1.64826111 -5.65626525 2.44271087 -9 3 C-8.67 2.01 -8.34 1.02 -8 0 C-4.71023192 -1.09658936 -3.28696233 -0.79953138 0 0 Z " fill="#090A0C" transform="translate(107,178)"/>
<path d="M0 0 C0 0.99 0 1.98 0 3 C-2.5 5.1875 -2.5 5.1875 -5 7 C-5 6.01 -5 5.02 -5 4 C-2.5 1.8125 -2.5 1.8125 0 0 Z " fill="#2E2D30" transform="translate(285,73)"/>
<path d="" fill="#EBF1F8" transform="translate(0,0)"/>
<path d="" fill="#ECF4FA" transform="translate(0,0)"/>
<path d="" fill="#E9F2F8" transform="translate(0,0)"/>
<path d="" fill="#F2F1F8" transform="translate(0,0)"/>
<path d="" fill="#FEFFF8" transform="translate(0,0)"/>
<path d="" fill="#F1F2F8" transform="translate(0,0)"/>
<path d="" fill="#F2F1F8" transform="translate(0,0)"/>
<path d="" fill="#F6F3FB" transform="translate(0,0)"/>
<path d="" fill="#F1F2F8" transform="translate(0,0)"/>
<path d="" fill="#F4F6FA" transform="translate(0,0)"/>
<path d="" fill="#F0F6F9" transform="translate(0,0)"/>
<path d="" fill="#FEFFFA" transform="translate(0,0)"/>
<path d="" fill="#FBFFFA" transform="translate(0,0)"/>
<path d="" fill="#FBF6F8" transform="translate(0,0)"/>
<path d="" fill="#8F8C82" transform="translate(0,0)"/>
<path d="" fill="#FBF8F9" transform="translate(0,0)"/>
</svg>
