<?xml version="1.0" encoding="UTF-8"?>
<svg id="Layer_1" data-name="Layer 1" xmlns="http://www.w3.org/2000/svg" viewBox="0 0 537 500">
  <polygon points="297 0 297.02 10.01 335.97 9.99 336.02 18.96 345 19.11 345 143.97 326.02 144.03 325.98 134.99 307.02 135.01 306.97 124.99 268.03 125.01 267.98 114.99 249.02 114.99 248.97 125.01 211.03 124.99 210.98 135.01 192.02 134.99 191.99 144 182 144 182 154 173 154 173 163 163 163 163 173 153 173 153 182.99 143.99 183.03 144.01 211.97 134 212.06 134 287.94 144.01 288.03 143.99 316.97 153 317.01 153 327 163 327 163 337 173 337 173 346 182 346 182 356 191.99 356 192.01 365.01 210.98 364.99 211.03 375.01 248.97 374.99 249.02 385.01 267.98 385.01 268.03 374.99 306.97 375.01 307.02 364.99 325.98 365.01 326.02 355.97 345 356.04 345 480.89 336.02 481.04 335.97 490.01 297.02 489.99 297 500 201 500 200.98 489.99 163.03 490.01 162.98 480.99 144.01 481.01 143.99 470.99 125.02 471.01 124.98 461.99 105.01 462.01 105 452 96 452 96 442 86 442 86 433 77 433 77 423 67 423 67 413 58 413 58 404 48 404 48 394 37.99 393.99 38.01 375.02 28.99 374.98 29.01 356.01 18.99 355.99 19.01 337.02 9.99 336.96 10.01 298.02 0 298 0 202 10.01 201.98 9.99 163.04 19.01 162.98 18.99 144.01 29.01 143.99 28.99 125.02 38.01 124.98 37.99 106.01 48 106 48 96 58 96 58 87 67 87 67 77 77 77 77 67 86 67 86 58 96 58 96 48 105 48 105.01 37.99 124.98 38.01 125.02 28.99 143.99 29.01 144.01 18.99 162.98 19.01 163.03 9.99 200.98 10.01 201 0 297 0"/>
  <polygon points="537 154 537 163 527 163 527 173 518 173 518 183 507.99 183.01 508.01 201.99 499 202.01 499 212 489 212 489 221 479 221 479 231 470.05 231 469.88 240 344.99 240 345 153.99 537 154"/>
  <polygon points="537 337 537 346 345 346.01 344.99 260 469.88 260 470.05 269 479 269 479 279 489 279 489.01 288 499.01 288.01 498.99 307.98 508 308.01 508 317 518 317 518 327 527 327 527 337 537 337"/>
</svg>