<?xml version="1.0" encoding="UTF-8"?>
<svg id="Layer_1" data-name="Layer 1" xmlns="http://www.w3.org/2000/svg" viewBox="0 0 300 240">
  <rect y="183.42" width="90" height="25.94"/>
  <rect x="210" y="149.87" width="90" height="26.05"/>
  <rect x="210" y="183.42" width="90" height="25.94"/>
  <rect y="149.87" width="90" height="26.05"/>
  <polygon points="300 24.42 300 0 209 0 184.77 24.42 300 24.42"/>
  <polygon points="119.57 149.87 146.26 175.92 154.42 175.92 180.78 149.87 119.57 149.87"/>
  <polygon points="170.39 38.92 149.5 59.98 128.61 38.92 0 38.92 0 64.92 300 64.92 300 38.92 170.39 38.92"/>
  <rect y="214.86" width="90" height="25.14"/>
  <rect x="210" y="214.86" width="90" height="25.14"/>
  <polygon points="0 116.42 0 140.37 90 140.37 90 121 109.84 140.37 190.4 140.37 210 121 210 140.37 300 140.37 300 116.42 0 116.42"/>
  <rect y="78.42" width="300" height="26.5"/>
  <polygon points="114.23 24.42 90 0 0 0 0 24.42 114.23 24.42"/>
</svg>