<?xml version="1.0" encoding="UTF-8"?>
<svg version="1.1" xmlns="http://www.w3.org/2000/svg" width="48" height="48">
<path d="M0 0 C10.56 0 21.12 0 32 0 C32 6.6 32 13.2 32 20 C29.36 20 26.72 20 24 20 C24 21.32 24 22.64 24 24 C27.96 24 31.92 24 36 24 C36 30.6 36 37.2 36 44 C22.8 44 9.6 44 -4 44 C-4 37.4 -4 30.8 -4 24 C-0.04 24 3.92 24 8 24 C8 22.68 8 21.36 8 20 C5.36 20 2.72 20 0 20 C0 13.4 0 6.8 0 0 Z M4 4 C4 7.96 4 11.92 4 16 C11.92 16 19.84 16 28 16 C28 12.04 28 8.08 28 4 C20.08 4 12.16 4 4 4 Z M12 20 C12 21.32 12 22.64 12 24 C14.64 24 17.28 24 20 24 C20 22.68 20 21.36 20 20 C17.36 20 14.72 20 12 20 Z M0 28 C0 31.96 0 35.92 0 40 C10.56 40 21.12 40 32 40 C32 36.04 32 32.08 32 28 C21.44 28 10.88 28 0 28 Z " fill="#000000" transform="translate(8,2)"/>
<path d="M0 0 C5.28 0 10.56 0 16 0 C16 1.32 16 2.64 16 4 C10.72 4 5.44 4 0 4 C0 2.68 0 1.36 0 0 Z " fill="#000000" transform="translate(20,34)"/>
<path d="M0 0 C1.32 0 2.64 0 4 0 C4 1.32 4 2.64 4 4 C2.68 4 1.36 4 0 4 C0 2.68 0 1.36 0 0 Z " fill="#000000" transform="translate(12,34)"/>
</svg>
