<?xml version="1.0" encoding="UTF-8" standalone="no"?>
<!-- Created with Inkscape (http://www.inkscape.org/) -->

<svg
   xmlns:dc="http://purl.org/dc/elements/1.1/"
   xmlns:cc="http://creativecommons.org/ns#"
   xmlns:rdf="http://www.w3.org/1999/02/22-rdf-syntax-ns#"
   xmlns:svg="http://www.w3.org/2000/svg"
   xmlns="http://www.w3.org/2000/svg"
   xmlns:sodipodi="http://sodipodi.sourceforge.net/DTD/sodipodi-0.dtd"
   xmlns:inkscape="http://www.inkscape.org/namespaces/inkscape"
   width="139.72104mm"
   height="72.384598mm"
   viewBox="0 0 139.72104 72.384598"
   version="1.1"
   id="svg8434"
   inkscape:version="0.92.0 r15299"
   sodipodi:docname="uship.svg">
  <defs
     id="defs8428" />
  <sodipodi:namedview
     id="base"
     pagecolor="#ffffff"
     bordercolor="#666666"
     borderopacity="1.0"
     inkscape:pageopacity="0.0"
     inkscape:pageshadow="2"
     inkscape:zoom="1.7108526"
     inkscape:cx="262.15"
     inkscape:cy="134.90003"
     inkscape:document-units="mm"
     inkscape:current-layer="layer1"
     showgrid="false"
     fit-margin-top="0"
     fit-margin-left="0"
     fit-margin-right="0"
     fit-margin-bottom="0"
     inkscape:window-width="1280"
     inkscape:window-height="744"
     inkscape:window-x="-4"
     inkscape:window-y="-4"
     inkscape:window-maximized="1" />
  <metadata
     id="metadata8431">
    <rdf:RDF>
      <cc:Work
         rdf:about="">
        <dc:format>image/svg+xml</dc:format>
        <dc:type
           rdf:resource="http://purl.org/dc/dcmitype/StillImage" />
        <dc:title></dc:title>
      </cc:Work>
    </rdf:RDF>
  </metadata>
  <g
     inkscape:label="Layer 1"
     inkscape:groupmode="layer"
     id="layer1"
     transform="translate(-14.55019,-162.03389)">
    <g
       transform="translate(-658.13385,-345.23136)"
       id="g8415">
      <path
         style="fill:#0083bb;stroke-width:0.26458332"
         id="path8394"
         d="m 756.63362,547.26753 h -10.55687 v -9.18104 h -9.41917 v 30.55937 h 9.41917 V 556.6867 h 10.55687 v 11.95916 h 9.41917 v -30.61229 h -9.41917 z"
         inkscape:connector-curvature="0" />
      <path
         style="fill:#0083bb;stroke-width:0.26458332"
         id="path8396"
         d="m 740.30883,522.15857 8.17563,2.96334 -8.14917,-17.35667 -17.33021,8.12271 7.46125,2.69875 -0.0529,0.13229 c -0.58208,1.48167 -1.08479,2.59292 -1.29645,2.83104 -0.29105,0.34396 -0.68792,0.82021 -2.96334,0.97896 -0.55562,0.0265 -1.00541,0.0529 -1.45521,0.0529 H 723.693 c -0.76729,0 -1.64042,0.0529 -3.30729,0.29104 -3.22792,0.47625 -5.68855,1.56104 -7.91105,3.4925 -1.87854,1.61396 -3.73062,3.70416 -4.70958,8.04333 -0.68792,3.06917 -0.23812,6.11188 1.34938,9.04875 1.00541,1.82563 3.25437,4.68313 8.41375,7.83167 2.32833,1.40229 3.91583,2.51354 4.68312,3.59833 0.50271,0.74083 0.71438,1.56104 0.58208,2.2225 -0.0529,0.29104 -0.21166,0.66146 -0.58208,0.92604 -0.58208,0.39688 -1.74625,0.71438 -2.98979,1.03188 l -0.0794,0.0265 c -1.87854,0.52916 -4.20687,1.16416 -6.08541,2.38125 -2.8575,1.85208 -3.70417,3.30729 -6.19125,14.34041 l -0.15875,0.66146 9.36625,2.67229 0.18521,-0.71437 c 0.87312,-3.57188 1.5875,-5.66209 2.0902,-6.21771 0.55563,-0.635 0.87313,-0.89958 2.30188,-1.34938 0.29104,-0.10583 0.58208,-0.1852 0.87312,-0.26458 l 0.37042,-0.10583 c 1.79917,-0.52917 3.51896,-1.03188 6.05896,-2.30188 3.54542,-1.71979 6.05896,-6.00604 6.53521,-11.13896 0.52916,-5.45041 -1.45521,-8.41375 -3.65125,-10.82145 -1.50813,-1.64042 -8.12271,-5.90021 -9.07521,-6.45584 -1.16417,-0.68791 -2.54,-1.85208 -2.43417,-3.54541 0.0794,-1.32292 1.50813,-1.905 1.87854,-1.98438 0.29105,-0.0529 0.7673,-0.10583 1.56105,-0.18521 h 0.0794 c 1.08479,-0.10583 2.69875,-0.26458 5.00063,-0.58208 4.41854,-0.66146 6.79979,-2.77813 7.62,-3.67771 2.80458,-3.04271 4.20687,-6.00604 4.78895,-7.51417 z m 28.73375,15.90146 h 9.41917 v 30.61229 h -9.41917 z m 4.73604,-12.3825 c -3.09562,0 -5.50333,2.40771 -5.50333,5.50333 0,3.04271 2.46062,5.50334 5.50333,5.50334 3.04271,0 5.50334,-2.46063 5.50334,-5.50334 0,-3.0427 -2.46063,-5.50333 -5.50334,-5.50333 z m 23.1775,13.25563 c -2.06375,0 -4.02166,0.39687 -5.84729,1.21708 l -0.18521,0.0794 v -2.14312 h -9.63083 v 37.06812 h 9.63083 v -7.67291 l 0.18521,0.0794 c 1.79917,0.79375 3.78354,1.21709 5.84729,1.21709 8.255,0 14.94896,-6.69396 14.94896,-14.94896 0,-8.22854 -6.72042,-14.89604 -14.94896,-14.89604 z m 0,20.92854 c -3.28083,0 -6.0325,-2.75167 -6.0325,-6.0325 0,-3.20146 2.83104,-6.0325 6.0325,-6.0325 3.20146,0 6.0325,2.80458 6.0325,6.0325 0,3.20146 -2.83104,6.0325 -6.0325,6.0325 z m -101.41479,-6.85271 c 0,3.46604 -2.96333,6.37646 -6.45583,6.37646 -3.51896,0 -6.48229,-2.91042 -6.48229,-6.37646 v -14.89604 h -9.41917 v 14.89604 c 0,8.65187 7.11729,15.66333 15.875,15.66333 8.75771,0 15.875,-7.03791 15.875,-15.66333 v -14.89604 h -9.39271 z"
         inkscape:connector-curvature="0" />
    </g>
  </g>
</svg>
