<?xml version="1.0" encoding="UTF-8"?>
<svg id="Layer_1" data-name="Layer 1" xmlns="http://www.w3.org/2000/svg" viewBox="0 0 668 257">
  <path d="M327,0c9.42,4.69,19.31,8.45,29.67,12.45l57.52,22.22c5.2,1.36,12.48.12,17.68-.07l17.27-.62,97.06-10.78,73.9-12.49,35.18,19.09c-2.22,3.15-3.07,5.92-4.86,8.98l-44.8,76.37c2.03,7.44,5.14,13.84,8.56,20.58l18.56,36.57,35.27,68.75v2.83l-44,13.13h-2l-88.11-24.82c3.22-4.24,6.57-6.89,10.31-10.13-14.64-6.45-11.43-1.52-24.47,7.06l-82.89-17.03-35.89,13.83-78.52,29.02-102.04-40.38c-3.58-1.42-6.85-.47-10.56.17l-52.47,9.45c-4.35-4.52-7.42-8.78-11.11-13.34l-13.23,4.49,9.52,11.91-89.84,27.18c-3.64,1.59-6.64,1.22-10.17-.04l-35.59-12.72,20.38-97.35,12.07-54.49C26.43,66.18,14.01,42.62,0,20v-2c12.01-1.59,39.81-12.14,50-13.04,5.19-.46,10.45,2.41,15.89,3.38l161.96,28.69,46.04-17.99L325,0h2ZM321.96,18.21c-14.45,4.29-27.93,11.31-41.69,16.19,4.55,1.35,7.38.95,10.48,1.19s6.12.42,9.25.41c4.26,0,8.04-1.67,12-3,5.28-1.77,11.07-2.46,15.97-5.2,5.16-.27,9.95,1.85,15.06,2.19l1.97.13.93.08c1.91,1.39,4.72,1.82,6.98,1.95.49,1.19,2.18.68,3.22.85.59.1,1.29-.11,1.87.04,3.6.9,7.3,1.27,10.91,1.97,4.26.82,8.66,1.98,13.11.55-3.12-1.62-6.71-1.88-9.21-2.68-2.69-2.69-6.75-2.27-9.96-3.72-6.12-2.77-12.56-4.69-18.86-7.15-3.28-1.28-6.48-3.19-9.99-3.2-3.46-4.27-7.93-1.81-12.05-.59ZM33.04,32.96c4.92,15.96,17.15,31.03,23.85,47.03l-12.27,65.4-11.41,63.54-.28,2.07-.16,2c-1.88,1.15-.34,3.72-.94,5.15-1.79,4.23-2.28,8.68-2.63,14.03,5.15-1.53,10.06-2.18,13.9-4.97.67-.06,1.34-.29,2.01-.31.71-.01,1.33-.78,1.95-.87,2.63-.19,5.23-.99,8.16-1.98,18.73-6.3,37.07-12.32,56.09-17.57,4.1,3.68,13.66-7.08,15.64-9.51,1.03-1.26,2.11-1.97,2.77-3.58.57-1.39,2.84-2.25,2.23-4.38.27-1.04-1.13-1.46-1.02-.2l-30.81,9.3-54.06,17.75c-1.29.42-2.8.76-3.19-.11-.45-1-.48-1.91-.62-2.82-.65-1.52,1.05-2.59,1.38-4.42l23.23-127.54c.5-2.73-.21-4.64-1.39-6.7l-11.22-19.67c-2.33-4.09-3.39-8.44-6.31-12.71,1.29-1.39,2.76-1.27,4.07-1.63.09.92,1.37.53,2,.49,4.3-.32,8.61.19,12.92.19h1.17l18.91.83,1,.03,7.17.04c.55,0,1.14-.09,1.69-.02,2.7.35,5.43.06,8.14.17,5.32.23,10.7-.39,16,.14,7.92.79,15.98,1.13,23.97.95,5.73-.13,11.37-.2,17.03.92,5.07-.85,10.42-.47,16.03.34l32.23-.92-109.46-14.99c-19.37-2.65-37.37-7.23-56.76-9.11-4.66-.45-9.26,3.82-13.95,4.13-.71,4.12,2.01,6.49,2.95,9.53ZM621.07,200.01l6.99,15.8-17.05.19c-1.57-2.24-4.48-2.03-7-2.19-.33-.02-.67-.13-1-.11-.36-.84-1.41-.5-2-.85-4.18-2.47-9.69-1.63-13.99-3.18-10.75-3.89-22.05-6.36-33.81-8.84-.08,2.42,1.08,5.07,2.51,6.61l33.39,8.42c3.61.91,7.06,2.89,10.91,2.49.29.29.61.6,1,.76.96.4,1.98.62,3,.81.33.06.67.13,1,.22l42.66,11.73-33.59-66.63c-1.14-2.26-2.97-4.32-3.69-6.22-5.54-14.66-14.33-27.89-20.76-42.63l51.27-79.38-23.59-12.94-69.79,10.43-46.71,7.13,114.07-.65c4.88-.39,9.09.61,12.23,3.74l-52.01,70.2,45.96,85.09ZM158.71,103.02l-43.82,5.29c.87-6.44,2.07-12.08,3.53-18.22,10.1-2.61,20.05-3.3,30.34-4.51l15.77-1.86,3.97-30.07-97.56.24,12.4,17.39-21.43,121.49,41.69-11.32,10.15-43.71,41.24-6.67,3.72-28.05ZM225.8,162.42l40.49-3.65-19.74-32.99,19.21-13.16c2.01-15.64,3.39-30.51,4.25-46.28-6.84-3.76-12.88-9.69-20.18-11.94l-69.79-.47-7.02,52.11-7.48,62.91,35.01-5.2,5.35-38.66c6.56,7.11,8.74,15.59,12.88,23.27l7.04,14.07ZM374.09,53.98l-33.27.06-6.78,75.25c-8.33,1.2-16.56.87-25.04-.07.76-15.16,1.08-29.28,3.32-43.76l4.88-31.53-36.47.09-6.48,72.87-.7,18.16,19.82,11.98c15.12-.09,30.88.81,46.1-1.09,8.93-1.12,16.68-7.44,25.36-9.92l9.25-92.02ZM473.4,166.74l6.13-71.92,3.77-40.87-32.22.07-4.69,49.07-29.75-49.07-32.12-.07-4.51,46.11-5.4,56.42,30.76,1.88c1.86-17.13,1.71-33.11,4.71-50.23l33.87,54.34,29.46,4.27ZM603.19,194.05l-44.69-80.73,48.58-59.23-43.19-.04-39.33,45.05,8.55-45.13-38.92.05-3.42,42.03-5,72.4,34.46,6.3,3.61-49.8,34.95,58.03,44.41,11.07ZM309,171.91c-3.21-.81-6.58-.02-9.83.08-2.16.07-4.37-.42-7.35.32,1.55,3.59,3.9,6.15,6.19,8.74,1.2,1.35.82,3.25,4.03,3.18l39.72-.81c2.84-1,4.15-5.15,5.22-7.45.45-.97,2.27-1.54,2.02-2.97,1.3.23,1.12-1.09,0-1.1-14.36-1.42-25.78-1.11-40,0ZM398.27,186.18c2.01-4.23,4.35-7.14,5.14-11.39l-37.03-2.55c-3.01,3.77-5.75,6.69-8.64,11.24l40.53,2.7ZM287.14,185.39c-3.33-4.61-6.77-7.59-10.52-11.26-15.12.74-29.72,1.67-44.75,3.4l6.06,12.09,49.21-4.23ZM515.36,192.04c-4-1.64-8.26-1.85-12.84-2.72l-59.41-11.36c-3.66,4.11-6.53,8.24-9.41,13.24l71.98,13.96,9.68-13.11ZM207.24,192.29c-2.37-5.54-4.04-8.48-6.25-12.41l-35.42,7.42c2.57,5.23,4.38,8.83,7.19,12.71l34.48-7.72ZM351,217.7c-.28-.08-.7.07-1,.11-4.83.67-9.32,3.09-14,4.19-6.23,1.46-12.28,4.14-19.02,5.29-2.36.4-4.82-1.89-6.98-1.39-1.46.33-3.41-1.5-5.03-.89-.58.22-1.35-.23-1.97-.13-.26.04-.71.01-.93-.08-1.95-1.39-4.76-1.84-7.07-1.99-.51-1.15-2.08-.79-3.13-.81-.56,0-1.35-.21-1.87-.04l-10.17-1.89c-6.11-1.14-11.96-3.79-19.14-2.77,5.12,1.62,9.46,4.1,14.41,4.79,2.53,2.86,6.89,2.29,10.04,3.76,6.09,2.84,12.59,4.63,18.86,7.15,3.27,1.31,6.5,3.17,10,3.19,2.97,3.34,7.85,3.06,11.06.8.65,0,1.54.29,2.59-.14l65.24-26.19c-5.98-1.21-11.5-.81-16.79.17.18-.85-1.53-1-2.1-.82-5.41,1.67-16.44,4.17-23,7.7Z" fill="#040403"/>
  <polygon points="668 243.87 668 257 624 257 668 243.87" fill="#fefefe"/>
  <path d="M603.19,194.05l-44.41-11.07-34.95-58.03-3.61,49.8-34.46-6.3,5-72.4,3.42-42.03,38.92-.05-8.55,45.13,39.33-45.05,43.19.04-48.58,59.23,44.69,80.73ZM515.09,65.48c-6.44-.8-12.3-.84-18.18.04,6.44.8,12.3.84,18.18-.04ZM571.88,66.58c-5.4-.51-8.97-1.31-13.58-.83,4.76,2.63,9.35.99,13.58.83ZM581.07,78.56c1.81-.35,2.5-1.25,2.85-2.56-1.51.62-2.03,1.67-2.85,2.56ZM551.51,109.57c-.56.72.7,1.68,1.01,1.02-1.46,3.09,27.64-27.51,28.73-30.61-5.53,2.22-8.37,7.09-12.28,11.04-6.19,5.82-12.02,11.64-17.47,18.55ZM516.31,167.02l3.94-49.8c-8.95-1.07-16.76-2.46-25.42-2.49l-2.18,48.58,23.65,3.72ZM592.81,183.91l-35.66-61.78c-11.1-1.57-20.88-3.99-32.34-3.67l35.64,58.02c10.86,2.4,20.71,6.17,32.36,7.42Z" fill="#f8f8f8"/>
  <path d="M158.71,103.02l-3.72,28.05-41.24,6.67-10.15,43.71-41.69,11.32,21.43-121.49-12.4-17.39,97.56-.24-3.97,30.07-15.77,1.86c-10.29,1.21-20.24,1.9-30.34,4.51-1.46,6.14-2.66,11.78-3.53,18.22l43.82-5.29ZM157.04,70.25c-10.39-.03-20.5-1.09-30.56.33-6.59.93-12.43-.5-19.39,1.25,6.18,2.69,12.01.81,17.88.26,6.65-.62,23.51.63,32.08-1.84ZM106.46,72.52c-3.23-3.52-6.44-.63-9.5-.65-2.92.74-5.63-.85-8.07.87,6.21.3,11.63.71,17.57-.22ZM125.06,126.18l-44.62,5.46-8.8,51.51,28.52-6.5c2.37-15.03,5.58-28.23,10.68-41.95l14.12-2.73,24.56-3.38c1.79-.25,2.92-4.46,1.62-4.53-8.88-.51-17.18,1.18-26.08,2.12Z" fill="#f9f9f9"/>
  <path d="M225.8,162.42l-7.04-14.07c-4.15-7.68-6.33-16.16-12.88-23.27l-5.35,38.66-35.01,5.2,7.48-62.91,7.02-52.11,69.79.47c7.31,2.25,13.35,8.17,20.18,11.94-.86,15.77-2.24,30.64-4.25,46.28l-19.21,13.16,19.74,32.99-40.49,3.65ZM191,68c-3.05.55-6.23-1.23-9.8,1.03,3.62,2.01,6.74.62,9.8.97,4.54.52,9.1-.38,13.98-.82,10.97-.99,21.81.9,32.54-.74,7.64-1.17,14.82.57,22.56-1.19-15.4-.16-30.89-.89-46.56.25-7.55.55-14.62.67-22.52.49ZM232.6,108.91c1.5-8.82,2.51-17.07,2.63-25.84-9.03-.87-17.05-.78-25.46-.39l-2.94,26.27c9.06.14,17.21.9,25.78-.04ZM229.1,156.88l28.61-2.47c-5.85-10.31-11.29-19.25-18.14-28.35.7-1.14,18.87-11.56,10.05-10.87l-72.86,5.71-4.42,42.03,24.12-2.95,5.28-36.13c2.52-.9,6.63-1.89,9.17-.75,5.88,12.16,11.12,22.27,18.19,33.78Z" fill="#f8f8f8"/>
  <path d="M473.4,166.74l-29.46-4.27-33.87-54.34c-3,17.12-2.85,33.1-4.71,50.23l-30.76-1.88,5.4-56.42,4.51-46.11,32.12.07,29.75,49.07,4.69-49.07,32.22-.07-3.77,40.87-6.13,71.92ZM416.07,65.49c-10.13-.81-19.63-.84-29.15.03,10.13.81,19.63.84,29.15-.03ZM477.08,65.49c-8.12-.8-15.63-.84-23.16.03,8.12.8,15.63.84,23.16-.03ZM401.97,151.9l3.85-41.66c-7.75-1.06-15.03-.58-23.08-.51l-3.25,41.22,22.47.96ZM473.48,112.36l-22.29-1.28c-1.05,2.29-.3,4.46-1.99,6.1-2.22-1.88-3.31-5.81-6.17-6.21-8.07-1.12-15.79-.99-24.2-.73,4.66,8.82,10.44,16.1,15.58,24.39l13.44,21.71c7.17.89,13.76,2.83,21.21,2.99l4.42-46.98Z" fill="#f8f8f8"/>
  <path d="M374.09,53.98l-9.25,92.02c-8.68,2.48-16.43,8.81-25.36,9.92-15.22,1.9-30.98,1.01-46.1,1.09l-19.82-11.98.7-18.16,6.48-72.87,36.47-.09-4.88,31.53c-2.24,14.47-2.56,28.6-3.32,43.76,8.48.94,16.71,1.27,25.04.07l6.78-75.25,33.27-.06ZM367.89,65.43c-9.41-.34-17.1-1.49-25.8.59,9.23,1.95,17.79,1.4,25.8-.59ZM311.09,66.33l-28.41-.09c3.42,3.48,7.86,1.55,11.53.97,5.89-.93,11.42.82,16.88-.88ZM336.12,133.09c-10.14.7-20.49,1.16-30.94.16l.85-21.18-25.08,1.04-.4,28.25c4.78,2.56,9.07,8.58,14.69,9.6l40.78.29c2.89.02,4.23-1.52,6.06-2.05,6.09-1.75,12.25-3.63,18.63-6.79,2.08-10.71,2.49-21.26,3.35-32.12l-24.11.46-2.09,19.29c-.16,1.48-.77,2.58-1.73,3.05Z" fill="#f8f8f8"/>
  <path d="M610.38,159.02c-.93,2.11-2.92,4.84-1.76,7.6l12.68,30.26c.58,1.38.63,2.36-.24,3.12l-45.96-85.09,52.01-70.2c-3.14-3.12-7.36-4.13-12.23-3.74l-114.07.65,46.71-7.13,69.79-10.43,23.59,12.94-51.27,79.38c6.43,14.74,15.22,27.97,20.76,42.63Z" fill="#f09903"/>
  <path d="M95.17,41.84l-7.17-.04c.04-.97-1.02-1.02-1-.03l-18.91-.83c.22-1.22-1.39-1.21-1.17,0-4.31,0-8.62-.51-12.92-.19-.04-.91-1.39-.65-2-.49-1.32.37-2.79.24-4.07,1.63,2.92,4.27,3.98,8.63,6.31,12.71l11.22,19.67c1.18,2.06,1.89,3.97,1.39,6.7l-23.23,127.54c-.33,1.83-2.03,2.9-1.38,4.42-2.95-.25-3.76-3.2-5.52-6.05l-3.51,2.04,11.41-63.54,12.27-65.4c-6.7-16-18.93-31.06-23.85-47.03,2.02,1.63,4.97-2.11,6.56-1.61l3.22,6.63c.84,1.73,5.86,2.17,7.27.08,2.28-3.36,4.31-5.03,8.58-4.56,10.98,1.19,21.83,2.18,32.73,4.26,2.43.46,3.85,1.91,3.76,4.08Z" fill="#f2a207"/>
  <path d="M162,44c.18-1.01,1.6-.56,2.1-1.79-4.91-.79-9.26.49-13.9-.54-2.21-.49-4.33-.67-5.24,1.41-7.98.18-16.05-.16-23.97-.95.35-1.98-6.92-.44-15-2.14,2.51.53-12.99-.4-9.14,1.83-.55-.07-1.13.02-1.69.02.09-2.16-1.33-3.61-3.76-4.08-10.91-2.08-21.76-3.07-32.73-4.26-4.27-.46-6.29,1.2-8.58,4.56-1.42,2.09-6.43,1.65-7.27-.08l-3.22-6.63c-1.59-.5-4.54,3.24-6.56,1.61-.94-3.04-3.65-5.4-2.95-9.53,4.69-.31,9.29-4.58,13.95-4.13,19.39,1.88,37.39,6.46,56.76,9.11l109.46,14.99-32.23.92c-5.62-.8-10.96-1.18-16.03-.34Z" fill="#f09b05"/>
  <path d="M515.36,192.04l-9.68,13.11-71.98-13.96c2.88-4.99,5.75-9.12,9.41-13.24l59.41,11.36c4.58.87,8.83,1.08,12.84,2.72Z" fill="#f4a908"/>
  <path d="M130.92,188.82c.29.37.62.53,1.02.2.61,2.13-1.65,2.98-2.23,4.38-1.93,0-2.44,1.95-2.77,3.58-1.98,2.43-11.54,13.19-15.64,9.51-19.02,5.25-37.36,11.27-56.09,17.57-2.93.99-5.53,1.8-8.16,1.98-.21-1.99-1.26-5.57-3.85-5.74-1.85-.12-3.78,3.11-5.82,2.13-2.19-1.05-4-2.81-5.55-4.27.6-1.43-.94-4,.94-5.15,1.66.24,1.86-2,.16-2l.28-2.07,3.51-2.04c1.76,2.86,2.57,5.8,5.52,6.05.14.91.17,1.82.62,2.82.39.88,1.9.54,3.19.11l54.06-17.75,30.81-9.3Z" fill="#f1a106"/>
  <path d="M605,220.14c.19-1.1-.92-1.52-1-.22-1.02-.19-2.04-.41-3-.81.13-.75-.44-.82-1-.76-3.85.4-7.29-1.58-10.91-2.49.51-2.36.01-4.82-2.08-6.19,4.29,1.56,9.81.71,13.99,3.18-.08.55.22.86.62.91.55.07.98-.04,1.38-.06.33-.02.67.09,1,.11,1.5,2.18,4.54,2.06,7,2.19-2.85,1.58,25.18,1.43,17.05-.19l-6.99-15.8c.87-.76.82-1.74.24-3.12l-12.68-30.26c-1.16-2.77.83-5.49,1.76-7.6.72,1.9,2.55,3.97,3.69,6.22l33.59,66.63-42.66-11.73Z" fill="#f1a106"/>
  <path d="M287.14,185.39l-49.21,4.23-6.06-12.09c15.03-1.72,29.63-2.66,44.75-3.4,3.75,3.67,7.19,6.65,10.52,11.26Z" fill="#f2a608"/>
  <path d="M309,171.91c13.01,3.29,36.48-2.03,37.98,4.07-1.07,2.29-2.38,6.44-5.22,7.45l-39.72.81c-3.21.07-2.83-1.83-4.03-3.18-.41-3.09.07-6.15,1.15-9.06,3.25-.1,6.62-.9,9.83-.08Z" fill="#f1a405"/>
  <path d="M207.24,192.29l-34.48,7.72c-2.81-3.88-4.61-7.48-7.19-12.71l35.42-7.42c2.2,3.92,3.87,6.87,6.25,12.41Z" fill="#f1a405"/>
  <path d="M398.27,186.18l-40.53-2.7c2.89-4.55,5.64-7.48,8.64-11.24l37.03,2.55c-.79,4.25-3.13,7.16-5.14,11.39Z" fill="#f1a405"/>
  <path d="M334.01,18.8c2.18,2.7,5.36,3.37,8.99,4.2l.03,6.99c-5.11-.34-9.9-2.45-15.06-2.19-.68-2.46-15.26,3.93-15.97,4.2-3.72,1.41-9.11.48-12,4-3.13,0-6.14-.18-9.25-.41-.06-.34.12-1.67,1-2.02,9.69-3.87,18.57-8.49,27.91-13.14,1.18-.59,2.21-1.13,2.3-2.22,4.12-1.22,8.59-3.68,12.05.59Z" fill="#96a0a4"/>
  <path d="M358.01,217.19c.65.44,1.33.83,2.03,1.18-.73,1.78-2.71,2.37-4.67,3.31-10.41,5.01-21.21,8.9-30.31,15.31-3.21,2.26-8.09,2.54-11.06-.8-2.27-2.56-5.32-3.45-9-4.19l-.03-6.99c1.62-.61,3.57,1.22,5.03.89-.87,6.57,23.56-.74,26-2.89-1.11,1.06,19.05-4.21,14-5.19.3-.04.72-.19,1-.11,2.4.7,4.62-.72,7.01-.52Z" fill="#96a0a4"/>
  <path d="M325.06,236.99c9.1-6.41,19.91-10.29,30.31-15.31,1.96-.94,3.94-1.54,4.67-3.31,5.72-1.25,12.16-3.12,16.07-7.55,5.29-.98,10.81-1.38,16.79-.17l-65.24,26.19c-1.06.42-1.94.15-2.59.14Z" fill="#e5e7e7"/>
  <path d="M587.01,209.68c2.1,1.37,2.6,3.82,2.08,6.19l-33.39-8.42c-1.43-1.54-2.59-4.19-2.51-6.61,11.76,2.49,23.06,4.95,33.81,8.84Z" fill="#e49c07"/>
  <path d="M321.96,18.21c-.08,1.1-1.11,1.63-2.3,2.22-9.34,4.65-18.22,9.27-27.91,13.14-.88.35-1.06,1.68-1,2.02-3.1-.24-5.93.16-10.48-1.19,13.75-4.88,27.24-11.9,41.69-16.19Z" fill="#e0e1e2"/>
  <path d="M47.05,226.03c-.62.09-1.24.86-1.95.87.49-.65.01-1.58-.63-1.9-.53-.27-1.31-.03-1.46.51s.13,1.16.08,1.7c-3.83,2.79-8.75,3.44-13.9,4.97.35-5.35.84-9.8,2.63-14.03,1.55,1.46,3.36,3.23,5.55,4.27,2.04.98,3.97-2.25,5.82-2.13,2.59.16,3.64,3.74,3.85,5.74Z" fill="#f09b05"/>
  <path d="M291.87,222c-.7,1.02.33,2.19,1.55,2.07.57-.05,1.11-.79,1.57-1.26,2.3.15,5.11.6,7.07,1.99-.24,1.34.98,1.46.93.08.62-.1,1.39.35,1.97.13l.03,6.99c-.32-.06-.68.04-1,0-5.75-3.34-12.41-5.47-18.88-7.08-.05-.57-.78-1.24-.5-1.62,1.23-1.63,3.73-.17,5.38-1.35.52-.16,1.31.03,1.87.04Z" fill="#8c9497"/>
  <path d="M362.67,30.06c.02.69.14,1.73-.37,2.07-1.43.97-5.43-.38-4.3.91-.58-.15-1.27.06-1.87-.04.64-1.02-.32-2.19-1.54-2.06-.58.06-1.17.78-1.67,1.21-2.26-.13-5.07-.56-6.98-1.95.24-1.34-.98-1.46-.93-.08l-1.97-.13-.03-6.99c.32.07.68-.05,1,0,5.67,3.34,12.28,5.38,18.67,7.06Z" fill="#8c9497"/>
  <path d="M349,171.9c.03.36-.06.74,0,1.1.25,1.44-1.56,2-2.02,2.97-1.5-6.1-24.97-.78-37.98-4.07,14.22-1.12,25.64-1.42,40,0Z" fill="#f2a608"/>
  <path d="M336,222v1c-2.44,2.15-26.87,9.47-26,2.89,2.16-.49,4.62,1.8,6.98,1.39,6.73-1.15,12.79-3.82,19.02-5.29Z" fill="#a2aaac"/>
  <path d="M279.83,220.07c-1.73.22-3.42.84-4.73,2.02-4.95-.69-9.29-3.17-14.41-4.79,7.18-1.02,13.03,1.63,19.14,2.77Z" fill="#b3b9bd"/>
  <path d="M372.82,32.88c-1.15.98-3.08.75-3.91,2.13-3.61-.7-7.31-1.07-10.91-1.97-1.13-1.28,2.87.06,4.3-.91.5-.34.39-1.38.37-2.07,0-.29.17-.61.19-.91,3.21,1.45,7.27,1.03,9.96,3.72ZM366.31,31.91c-2.57-.14-2.87,1.07-.55,1.23,1.15-.13,1.59-.66.55-1.23Z" fill="#96a0a4"/>
  <path d="M290,221.96c-1.65,1.18-4.15-.28-5.38,1.35-.28.38.45,1.04.5,1.62l.03.92c-3.15-1.47-7.5-.9-10.04-3.76,1.31-1.18,2.99-1.8,4.73-2.02l10.17,1.89ZM283.31,221.91c-2.57-.14-2.87,1.07-.55,1.23,1.15-.13,1.59-.66.55-1.23Z" fill="#96a0a4"/>
  <path d="M304,232v1c-6.27-2.52-12.77-4.31-18.86-7.15l-.03-.92c6.47,1.61,13.13,3.74,18.88,7.08Z" fill="#b3b9bd"/>
  <path d="M362.86,29.15c-.02.3-.2.61-.19.91-6.39-1.68-13-3.72-18.67-7.06v-1c6.3,2.46,12.74,4.38,18.86,7.15Z" fill="#b3b9bd"/>
  <path d="M374,210c2.34,2.77-14.27,4.16-15.99,7.19-2.39-.2-4.61,1.22-7.01.52,6.56-3.53,17.59-6.03,23-7.7Z" fill="#b3b9bd"/>
  <path d="M299.17,171.99c-1.09,2.91-1.57,5.97-1.15,9.06-2.3-2.59-4.65-5.15-6.19-8.74,2.98-.73,5.19-.25,7.35-.32Z" fill="#f2a608"/>
  <path d="M327.97,27.8c-4.9,2.74-10.69,3.43-15.97,5.2v-1c.7-.27,15.28-6.66,15.97-4.2Z" fill="#a2aaac"/>
  <path d="M368.91,35c.82-1.38,2.75-1.14,3.91-2.13,2.5.79,6.09,1.06,9.21,2.68-4.45,1.43-8.86.27-13.11-.55Z" fill="#b3b9bd"/>
  <path d="M162,44c-5.67-1.12-11.3-1.04-17.03-.92.9-2.08,3.03-1.9,5.24-1.41,4.63,1.03,8.99-.25,13.9.54-.5,1.22-1.92.78-2.1,1.79Z" fill="#f4a908"/>
  <path d="M350,217.81c5.05.98-15.11,6.25-14,5.19v-1c4.68-1.1,9.17-3.52,14-4.19Z" fill="#b3b9bd"/>
  <path d="M312,32v1c-3.96,1.33-7.74,2.99-12,3,2.89-3.52,8.28-2.59,12-4Z" fill="#b4c4c8"/>
  <path d="M121,42.14c-5.3-.53-10.68.09-16-.14l1-2c8.08,1.7,15.35.16,15,2.14Z" fill="#f4a908"/>
  <path d="M628.05,215.81c8.13,1.62-19.91,1.77-17.05.19l17.05-.19Z" fill="#f4a908"/>
  <path d="M314,236.19c-3.5-.02-6.73-1.88-10-3.19v-1c.32.04.68-.06,1,0,3.67.74,6.72,1.63,9,4.19Z" fill="#b7c6c9"/>
  <path d="M344,22v1c-.32-.05-.68.07-1,0-3.63-.83-6.81-1.51-8.99-4.2,3.51.01,6.71,1.92,9.99,3.2Z" fill="#b7c6c9"/>
  <path d="M106,40l-1,2c-2.71-.11-5.44.17-8.14-.17-3.85-2.23,11.65-1.3,9.14-1.83Z" fill="#f2a207"/>
  <path d="M611,216c-2.46-.12-5.5,0-7-2.19,2.52.16,5.43-.06,7,2.19Z" fill="#e49c07"/>
  <path d="M129.71,193.39c-.66,1.61-1.74,2.31-2.77,3.58.33-1.62.85-3.57,2.77-3.58Z" fill="#e49c07"/>
  <path d="M356.13,33c-1.03-.17-2.73.34-3.22-.85.5-.44,1.09-1.15,1.67-1.21,1.22-.13,2.19,1.04,1.54,2.06Z" fill="#96a0a4"/>
  <path d="M295,222.81c-.47.47-1,1.2-1.57,1.26-1.23.12-2.25-1.05-1.55-2.07,1.05.01,2.61-.35,3.13.81Z" fill="#96a0a4"/>
  <path d="M376.1,210.82c-3.91,4.43-10.35,6.29-16.07,7.55-.7-.35-1.38-.74-2.03-1.18,1.72-3.02,18.33-4.41,15.99-7.19.57-.18,2.29-.03,2.1.82Z" fill="#a2aaac"/>
  <path d="M45.1,226.9c-.68.01-1.34.24-2.01.31.05-.54-.22-1.18-.08-1.7s.93-.77,1.46-.51c.64.32,1.12,1.25.63,1.9Z" fill="#f1a106"/>
  <path d="M603,213.71c-.4.02-.83.13-1.38.06-.4-.05-.7-.36-.62-.91.59.35,1.64,0,2,.85Z" fill="#e49c07"/>
  <path d="M32.77,213l.16-2c1.69,0,1.5,2.24-.16,2Z" fill="#f2a207"/>
  <path d="M54,40.75c-.63.05-1.91.44-2-.49.61-.17,1.96-.43,2,.49Z" fill="#e49c07"/>
  <path d="M88,41.8l-1-.03c-.02-1,1.04-.95,1,.03Z" fill="#f09b05"/>
  <path d="M601,219.12c-.39-.16-.71-.47-1-.76.56-.06,1.13,0,1,.76Z" fill="#e49c07"/>
  <path d="M131.94,189.02c-.4.33-.73.17-1.02-.2-.11-1.26,1.29-.84,1.02.2Z" fill="#e49c07"/>
  <path d="M605,220.14c-.33-.09-.67-.16-1-.22.08-1.3,1.19-.88,1,.22Z" fill="#e49c07"/>
  <path d="M68.09,40.94h-1.17c-.22-1.21,1.39-1.22,1.17,0Z" fill="#e49c07"/>
  <path d="M302.07,224.8c.22.09.67.12.93.08.05,1.38-1.17,1.25-.93-.08Z" fill="#96a0a4"/>
  <path d="M349,173c-.06-.36.03-.74,0-1.1,1.11.01,1.29,1.33,0,1.1Z" fill="#e49c07"/>
  <path d="M345.93,30.2l-.93-.08c-.05-1.38,1.17-1.25.93.08Z" fill="#96a0a4"/>
  <path d="M592.81,183.91c-11.65-1.26-21.5-5.03-32.36-7.42l-35.64-58.02c11.46-.32,21.24,2.1,32.34,3.67l35.66,61.78Z" fill="#bbcacd"/>
  <path d="M516.31,167.02l-23.65-3.72,2.18-48.58c8.66.03,16.47,1.43,25.42,2.49l-3.94,49.8Z" fill="#bac9cd"/>
  <path d="M551.51,109.57c5.44-6.91,11.27-12.73,17.47-18.55,3.91-3.96,6.75-8.82,12.28-11.04-1.09,3.1-30.19,33.7-28.73,30.61-.31.66-1.57-.3-1.01-1.02Z" fill="#bccbce"/>
  <path d="M515.09,65.48c-5.88.87-11.74.83-18.18.04,5.88-.87,11.74-.83,18.18-.04Z" fill="#e5e7e7"/>
  <path d="M571.88,66.58c-4.23.16-8.82,1.8-13.58-.83,4.61-.48,8.18.32,13.58.83Z" fill="#f8f8f8"/>
  <path d="M581.07,78.56c.82-.9,1.34-1.94,2.85-2.56-.35,1.31-1.05,2.21-2.85,2.56Z" fill="#bccbce"/>
  <path d="M125.06,126.18l-.1,5.79-14.12,2.73c-5.1,13.72-8.31,26.91-10.68,41.95l-28.52,6.5,8.8-51.51,44.62-5.46Z" fill="#bccbce"/>
  <path d="M124.96,131.97l.1-5.79c8.9-.93,17.21-2.63,26.08-2.12,1.3.07.16,4.29-1.62,4.53l-24.56,3.38Z" fill="#bbcacd"/>
  <path d="M157.04,70.25c-8.56,2.47-25.42,1.21-32.08,1.84-5.87.55-11.69,2.43-17.88-.26,6.97-1.75,12.8-.32,19.39-1.25,10.06-1.42,20.17-.36,30.56-.33Z" fill="#cdd5d7"/>
  <path d="M106.46,72.52c-5.94.93-11.36.52-17.57.22,2.45-1.71,5.15-.13,8.07-.87,3.06.02,6.27-2.87,9.5.65Z" fill="#cdd5d7"/>
  <path d="M229.1,156.88c-7.07-11.51-12.31-21.62-18.19-33.78-2.54-1.14-6.65-.15-9.17.75l-5.28,36.13-24.12,2.95,4.42-42.03,72.86-5.71c8.82-.69-9.35,9.73-10.05,10.87,6.85,9.1,12.29,18.04,18.14,28.35l-28.61,2.47Z" fill="#bccbce"/>
  <path d="M232.6,108.91c-8.57.93-16.72.18-25.78.04l2.94-26.27c8.41-.39,16.44-.47,25.46.39-.11,8.78-1.13,17.02-2.63,25.84Z" fill="#050505"/>
  <path d="M191,70v-2c7.9.18,14.97.06,22.52-.49,15.67-1.15,31.16-.41,46.56-.25-7.74,1.76-14.92.02-22.56,1.19-10.73,1.64-21.57-.25-32.54.74-4.88.44-9.44,1.34-13.98.82Z" fill="#cdd5d7"/>
  <path d="M191,68v2c-3.06-.35-6.18,1.05-9.8-.97,3.58-2.26,6.76-.48,9.8-1.03Z" fill="#e0e1e2"/>
  <path d="M473.48,112.36l-4.42,46.98c-7.45-.16-14.04-2.1-21.21-2.99l-13.44-21.71c-5.13-8.29-10.92-15.57-15.58-24.39,8.4-.26,16.13-.4,24.2.73,2.86.4,3.95,4.34,6.17,6.21,1.69-1.64.94-3.82,1.99-6.1l22.29,1.28Z" fill="#b9c8cc"/>
  <path d="M401.97,151.9l-22.47-.96,3.25-41.22c8.05-.07,15.33-.55,23.08.51l-3.85,41.66Z" fill="#b4c4c8"/>
  <path d="M416.07,65.49c-9.52.86-19.02.83-29.15.03,9.52-.86,19.02-.83,29.15-.03Z" fill="#bccbce"/>
  <path d="M477.08,65.49c-7.53.87-15.05.83-23.16.03,7.53-.87,15.05-.83,23.16-.03Z" fill="#cdd5d7"/>
  <path d="M336.12,133.09c.36,5.85,3.35,10.94,5.96,16.11-1.83.52-3.18,2.07-6.06,2.05l-40.78-.29c-5.61-1.02-9.91-7.05-14.69-9.6l.4-28.25,25.08-1.04-.85,21.18c10.45,1,20.8.55,30.94-.16Z" fill="#b7c6c9"/>
  <path d="M342.08,149.2c-2.6-5.17-5.59-10.26-5.96-16.11.97-.47,1.58-1.58,1.73-3.05l2.09-19.29,24.11-.46c-.86,10.86-1.26,21.41-3.35,32.12-6.38,3.16-12.54,5.05-18.63,6.79Z" fill="#bccbce"/>
  <path d="M367.89,65.43c-8.02,1.98-16.58,2.54-25.8.59,8.71-2.08,16.39-.92,25.8-.59Z" fill="#e0e1e2"/>
  <path d="M311.09,66.33c-5.46,1.7-10.99-.06-16.88.88-3.67.58-8.11,2.51-11.53-.97l28.41.09Z" fill="#cdd5d7"/>
  <path d="M366.31,31.91c1.05.57.61,1.1-.55,1.23-2.32-.16-2.03-1.36.55-1.23Z" fill="#8c9497"/>
  <path d="M283.31,221.91c1.05.57.61,1.1-.55,1.23-2.32-.16-2.03-1.36.55-1.23Z" fill="#8c9497"/>
</svg>