<svg xmlns="http://www.w3.org/2000/svg" xmlns:xlink="http://www.w3.org/1999/xlink" viewBox="0 0 1920 1080">
  <image width="4208" height="2265" transform="translate(8.1 133.05) scale(.24)" href="/maps/8bit-world-map-base.png"/>
  <g id="countries">
    <polyline id="AK" class="country-path" points="82.98 287.45 60.19 287.43 60.19 300.1 45.89 300.1 45.89 302.26 21.1 302.26 21.1 312.95 8 312.95 8 226.94 21.1 226.94 21.1 223.13 8 223.11 8 210.27 21.12 210.27 21.12 197.39 26.82 197.39 26.93 189.35 82.98 189.35 82.98 287.75"/>
    <path id="CA" class="country-path" d="M82.98,189.35l76.34-.06v18.82h30.98v-10.72h6.98v-8.11h6.14v8.11h12.87v-12.87h13.08v4.75h43.34v18.84h8.42v27.76h-25.69v9.74h55.06v37.84h18.99v29.51h3.95v38.59h-22.9v6.98h-29.11v5.84h-8.69v12.42h-17.55v26.26h-49.18v9.87h-10.49v-10.11h-57.32v-25.6h-12.92v-56.15h-3.85v-8.12h-22.38v-12.86h-12.88v-12.62l-3.18.28s.16-98.56,0-98.4h0Z"/>
  </g>
</svg>
