<?xml version="1.0" encoding="UTF-8"?>
<svg id="Layer_1" data-name="Layer 1" xmlns="http://www.w3.org/2000/svg" viewBox="0 0 1334.09 1864.28">
  <defs>
    <style>
      .cls-1 {
        fill: #04539b;
      }

      .cls-2 {
        fill: #bed3e5;
      }

      .cls-3 {
        fill: #e6ce2d;
      }

      .cls-4 {
        fill: #0b579f;
      }

      .cls-5 {
        fill: #115da4;
      }

      .cls-6 {
        fill: #0d58a3;
      }

      .cls-7 {
        fill: #df1c4e;
      }

      .cls-8 {
        fill: #fff;
      }

      .cls-9 {
        fill: #de1c4e;
      }

      .cls-10 {
        fill: #7e8183;
      }

      .cls-11 {
        fill: #fae016;
      }

      .cls-12 {
        fill: #5d5020;
      }

      .cls-13 {
        fill: #edf1f6;
      }

      .cls-14 {
        fill: #fde36f;
      }
    </style>
  </defs>
  <path class="cls-2" d="M883.5,132.13l-3.61.07c.1-1.32-1.41-3.54.65-4.41,1.11-.47,3.01-.1,3,1.01l-.05,3.33Z"/>
  <path class="cls-2" d="M435.49,174.09l-3.45.17c.23-1.22-1.79-3.52.5-4.47,1.04-.43,2.34-.19,3,1,.45.83-.4,2.31-.05,3.29Z"/>
  <path class="cls-13" d="M509.62,108.36l-1.88.14c.44-.95-.54-2.85-.21-3.69.38-.96,1.47-1.33,2.96-1.06.78.14,1.38,1.59,1.13,2.9-.14.76-1.46.9-1.99,1.72Z"/>
  <path class="cls-5" d="M799.42,554.08c8.06.54,14.87,1.61,21.97,1.28,6.58-.31,11.57-.53,16.44-.52l420.03.06,75.96.43.26,69-30.62,43.58.03,718.24-637.38,478.12-39.34-29.36c-17.86-15.74-36.64-28.67-55.5-43.15l-38.1-29.25-26.07-19.9-33.97-26.06-26.07-19.91-33.95-26.07-26.07-19.92-35.19-26.91-54.58-42-38.1-29.24-26.07-19.9-33.97-26.05-26.07-19.91-33.95-26.07-26.07-19.92-34.01-26c-17.31-13.24-29.12-22.3-46.98-36.21l-.15-707.88c-9.9-15.11-20.24-28.82-30.54-42.12l-1.37-72.88,75.2-.66,438.42.65,58.28-.75,13.81.05,35.93.05c5.11,0,8.99-.26,12.39-.01,18.98,1.37,36.44-.57,53.5-1.01,15.25-.4,30.02,1.05,44.41.98l13.85-.07c7.31-.04,13.49,2.03,19.73.66l16.06-3.52c6.38,4.94,12.1,1.75,17.85,2.13ZM1288.22,1381.2l-.03-719.75,29.81-41.68-.25-53.24H16.62s-.63,52.99-.63,52.99l33.17,45.1-.07,708.29,618.32,475.93,620.81-467.64Z"/>
  <path class="cls-11" d="M1288.22,1381.2l-620.81,467.64L49.09,1372.91l.07-708.29-33.17-45.1.63-53h1301.12s.25,53.25.25,53.25l-29.81,41.68.03,719.75ZM1248.03,1361.16l-.26-754.05H89.61s-.16,746.17-.16,746.17l578.21,445.04,580.36-437.15Z"/>
  <path class="cls-4" d="M879.9,132.2l3.61-.07c-.3,21.34,14.17,44.05,9.47,67.66-.51,2.55-2.55,5.07-1.43,8-2.98,1.1-5.53,3.72-3.39,8.13,3.42-1.88,3.63-5.45,5.39-8.13.76-1.17,1.48-3.02,2.34-4,3.59-4.06,5.01-9.61,7.26-14.81l7.6-17.55c7.91,15.95,6.82,33.63,4.32,50.36-.79,2.73-5.73,5.32-3.05,10.16,4.69-2.02,3.6-7.21,5.73-10.3l6.47-9.34c4.17,15.55,2.56,30.12.59,44.68-.35,2.6-5.7,5.28-1.88,8.76,2.81-3.69,4.72-7,8.24-7.97.37,14.99-1.35,29.58-6.03,43.85-.31.95-1.97,1.53-1.33,2.88.48,1,.69,1.71,1.86,1.39,2.87,23.08-10.78,43.28-24.67,61.33-.68.05-1.73.09-2.49.53-1.54.88-.74,2.04.14,2.04h3.06c.03,4.61-3.58,6.51-6.39,13.73,15.29.77,30.22,2.27,46.34,2.13l137.66-1.14c9.72-8.18,39.33-6.49,43.26-17.3,3.3-6.28-.35-13.38,9.47-15.75,5.07-1.22,9.45.95,15.56,7.91,5.42-8.59,1.37-30.31,16.15-28.65,15.82,1.77,6.45,22.57,18.6,34.15,5.77,5.49,5.2,14.74,6.76,20.96,22.97,5.51,23.34,20.38,33.59,17.35,11.62-3.44,22.18-4.68,34.97-2.99-.1,11.75,1.79,23.66-1.1,35.23-1.73,6.95-4.27,12.74-3.85,20.43.8,14.78-1.86,29.28.62,44,.79,4.68,5.66,8.38,4.29,13.84-7.02,28.06-.8,19.05.24,41.19l-420.03-.06c-.36-2.55,3.11-3.69,3.74-5.51l392.21-.41c-.28-11.17.08-21.8,1.15-33.21.44-4.65-2.79-9.1-2.88-14.01-.4-22.05-1.14-43.7,1.77-65.59.69-5.19,6.35-9.8,1.73-15.22-16.88,7.61-32.87,2.36-42.75-12.38-13.53-.77-25.92-9.45-28.65-22.49-.62-2.99,3.58-8.92-1.41-9.87-3.5,1.6-6.37,8.27-8.83,11.37-5.88,7.41-13.49-2.24-18.16-.39l-21.82,8.61c-7.85,3.1-15.66,4.77-22.81,9.64l-155.45,1c-13.13.08-25.28-2.11-38.32-1.18-9.02.64-13.05,10.52-13.34,17.67-1.05,6.01-17.85,15.77-11.66,20.81l-17.92,18.72c1.48.76,4.01,1.38,4.13,2.27.11.83-1.78,2.7-2.86,3.39-7.22,4.59-12.24,11.63-17.17,18.54s-14.88,9.98-18.86,17.36c-9.21-2.84-20.73,2.36-28.62,6.39-5.25.68-9.25-1.75-13.6-.94-13.31-5.69-18.11-10.06-33.88-6.78,8.2,4.56,16.87,6.84,26.05,7.56-1.11,1.51-2.49,2.77-3.98,3.88-8.97-2.95-18.18-.08-27.21.1s-16.75-1.36-24.83,1.67c-20.02-17.69-37.33-41.61-30.86-70.74,3.28-14.79,41.47-22.39,61.79-54.24,5.66-8.86,6.26-21.96-.37-29.51-6.97-7.94-12.22-15.21-12.65-25.06-.3-6.97,1.81-13.93-1.78-22.17-4.74,7.99-1.38,15.26-1.64,22.15,4.18,9.97-17.65,6.41-24.39,5.59l-.19-24.47c-7.96-1.56-16.34-2.02-24.57.36l.29,199.5c-1.22-.56-4.08-.25-5.31.18l.44-204.45c11.15-2.43,21.63-.08,33.18-1.38l1.06,25.6c4.63,1,9.45.98,14.65.09l.59-25.26,24.23-.34c1.17-5.13,1.22-10.79.04-15.94l-24.23-.34-.61-25.03c-5.19-1.66-10.14-1.47-14.82-.11-.66,8.87.75,16.34-.84,25.3-11.25-.22-21.69,1.35-32.76-1.07l-.66-50.49,23.69-.75c1.85-4.5,1.29-9.82.4-15.41l-23.63-1.09c-1.92-7.72,1.45-17.28-1.79-23.84-2.25-2.38-12.15-2.32-13.17.7l-1.23,23.18c-7.64,1.28-14.78.15-23.09.67-2.02,4.7-1.43,10.05-.65,15.46l23.82.7.4,45.5c.1,11.3-22.12,5.25-33.49,6.15l-.93-25.04c-3.58-.95-11.13-2.18-14.09.41-2.63,7.96.33,16.36-1.31,24.73l-24.09.39c-1.25,4.73-.89,9.87-.24,15.31l24.44.98.57,25.23c5.25.91,10.06.98,14.69-.12l1.05-25.5,33.03.57.55,205.42c-1.1-.83-4.01-.47-5.1-1.67-.15-7.69,1.27-15.13-1.03-24.49-5.75,9.97-13.27,17.59-21.35,24.85-5.69-1.5-12.9-1.01-17.93,1.44-6.49-5.62-17.85-6.94-25.67-6.72v-1.78l12.33-5.76c-14.45-5.14-17.31.97-28.82,4.46-5.52.62-12.17,1.08-17.84.78-4.19-4.92-17.47-6.67-24.25-3.34-7.09-6.16-15.98-11.32-22.8-19.11-5.33-6.09-9.16-13.96-17.39-18.45-.77-.42-2.4-2.41-2.48-3.19s2.9-1.02,4.14-2.15l-18.07-18.89c.27-1.28,2.51-3.12,1.43-4.42l-13.74-16.44c-.76-1.76,1.97-3.57,1.71-5.57-3.51-2.75-5.38-8.35-9.48-10.75l-219.02-2.19-7.69-7.64c-5.49-5.45-19.2-7.01-28.43-10.06-3.68.71-8.48,5.71-12.73,4.46-11.01-3.23-10.88-21.9-15.87-13.14.62-1.09,3.33,26.25-21.74,29.72-13.16,1.82-11.99,21.18-52.56,16.6,4.25,8.89,7.47,13.7,7.56,21.61l.49,43.52c.09,8.45-2.59,16.19-2.97,24.48-.55,11.99.89,23.37-.43,35.13l408.53.42c2.32,1.65,4.09,3.89,5.7,6.22l-438.42-.65c-2.05-10.27,9.08-21.73,2.8-35.56-3.97-8.75,1.71-14.25,2.7-21.74,2.32-17.58,1.94-35.86-.22-53.34.2,1.59-9.6-18.14-4.7-44.35,60.99,1.67,14.34,14.13,68.55-14.76.62-27.96,15.88-16.03,15.68-45.8-.04-5.58,7.94-8.48,12.33-7.71,12.71,2.23,9.47,19.42,13.43,25.87,7.72,1.5,15.86-1.7,22.5,1.21.66,18.51,23.77,17.2,37.97,21.28,5.51,1.58,8.6,4.47,15.47,4.5l188.88.86c-2.17-7.62-7.32-10.34-7.07-15.48,1.38-.03,3.26.37,4.05-1.1.55-1.03.03-2.83-.95-2.97l-2.87-.42c-9.22-1.35-27.04-41.78-25.69-57.24,2.23-.11,3.93,1.09,6.85,3.55.03-2.95-1.88-5.87-3.57-8.34-6.8-9.93-9.32-45.46-4.25-45.59-.29,1.88,1.81,2.72,2.47,4.02,1.9,3.74,3.41,8.1,7.51,9.54-1.65-4.62-2.12-8.3-5.51-9.54-.22-1.34.12-2.8-.17-4.13-3.34-14.89-3.58-30.11-.26-45.05,2.13,3.57,5.12,6.05,6.41,9.04,1.47,3.51,1.03,8.12,5.51,10.32,2.75-4.9-2.27-7.35-2.85-10.19-2.75-15.98-1.15-31.69,1.85-47.53l3.45-.17c3.98,11.18,8.51,22.38,15.69,31.83,2.17,2.86,2.89,7.06,5.87,10.07,1.61-4.82-2.46-7.05-2.98-10.2-3.02-18.18-7.79-38.16.19-55.55l10.41-22.66c3.32,17.03,4.55,34.56,12.74,48.15.63,2.18-.64,7.86,3.68,7.61,1.77-1.92-.22-6-1.02-7.54.4-25.31,8.42-50.31,27.66-67.29l1.88-.14c-.59,13.85-3.65,27.63-.46,42.54,6.52-4.03,4.27-11.54,7.32-16.78,16.68-28.75,11.65-22.31,40.53-42.24-2.99,15.8-12.08,27.67-10.74,45.12,13.51-25.3,32.46-44.49,61.19-48.92-3.12,5.78-25.9,35.63-18.9,37.78.91.28,3.53,1.22,4.65-.03,10.94-12.18,26.57-13.72,39.87-20.66,11.05-5.77,9.25-24.51,2.39-33.06,3.47-8.56,6.02-15.28,10.37-22.23,2.46-3.93,8.31-7.8,5.6-13.21-5.85-11.68,3.86-26.55,13.73-33.04,6.14-4.04,13.07-5.61,19.21.14,3.76,3.52,5.39,11,1.48,16.5-14.79,20.81,9.06,28.73,9.51,51.69-1.5,8.8-5.12,27.49,5.69,32.29,22.21,4.19,43.1,10.37,60.33,28.78-3.13-18.13-13.47-28.82-22.82-44.68,27.42,3.52,46.65,22.4,60.23,47.95,2.23-14.87-6.14-27.46-10.46-43.72,24.85,11.2,39.28,33.62,46.64,60.57,5.72-16.77,1.49-31.38.27-47.02,22.2,19.08,30.92,45.9,30.3,76.29,5.81-7.23,13.8-42.96,14.35-50.22ZM679.66,222.18l23.65.45c.13,8.64,1.25,17.23-.62,25.63-9.09.91-16.19-.9-23.65,1.06l.19,40.5c8.55,1.18,16.17,1.34,24.15-.22l.57-24.9c8.08-.5,15.42-.58,23.7.02l1,25.02c4.84.55,11.71,2.37,16.64-.05,8.88-4.36,10.57-14.63,10.69-23.71.06-4.54,4.54-11.66.99-14.6-5.65-2.91-12.74.32-19.64-1.68l-.7-47.07c-9.8-12.65-9.05-28.23-18.17-47.87-5.96-12.84-17.79-19.61-29.28-26.89-5.87-3.72-9.16-10.72-14.8-14.85l-1.43-37.56c-.23-6.01-4.13-11.47-5.62-17.75-9.66,12.26-3.83,42.75-8.66,53.18-10.28,22.18-35.41,22.93-44.8,45.12-6.17,14.57-5.39,34.65-16.86,46.65.94,15.05,2.43,31.43-2.87,46.76-3.83,1.6-7.81.33-12.9,1.7,2.02,15.19,8.19,31.57,21.98,41.08l2.29-27.47c8.44-.46,16.52-.94,23.97.34l.26,24.54c8.05,1.54,15.52,1.4,24.19.18l-.15-41.01c-8.69-1.09-15.85.74-24.03-1.14-.41-8.83-.47-16.84.12-25.03l23.77-.83.96-25.02c7.99-.97,15.97-.92,23.94,0l1.14,25.4ZM801.3,194.12c-1.74-30-12.97-56.75-31.53-78.18l11.48,38.84c4.21,14.25,15.08,25.11,20.05,39.33ZM575.55,118.79c0-.55-.45-1-1-1s-1,.45-1,1,.45,1,1,1,1-.45,1-1ZM573.13,120.24c-18.42,20.58-27.04,47.35-29.18,75.62,12.94-33.78,22.96-32.62,29.18-75.62ZM623.55,122.79c0-.55-.45-1-1-1s-1,.45-1,1,.45,1,1,1,1-.45,1-1ZM577.7,195.67c11.38-26.44,23.74-49.41,42.7-72.07-29.15,13.16-49.39,39.73-60.44,68.07-3.44,8.82-.28,19.08-1.4,28.45,2.76-10.02,15.01-14.85,19.15-24.45ZM786.57,219.7c8.86-36.49-31.67-84.78-61.79-96.46,19.52,22.72,31.99,46.44,43.18,72.69,3.86,9.07,16.46,13.76,18.61,23.77ZM587.55,128.79c0-.55-.45-1-1-1s-1,.45-1,1,.45,1,1,1,1-.45,1-1ZM530.32,216.73c-.6-14.05.85-26.22,3.06-38.9-1.98-16.16-.44-31.09-.4-48.34-15.83,31.69-16.6,68.2-8.25,102.82,5.17-3.82,5.36-9.18,5.59-15.58ZM820.53,233.85c7.58-27.68,9.05-75.53-8.39-104.01,2.03,15.41.14,31.1.72,47.41.54,15.05,3.88,29.21,2.53,44.57-.35,4.03,3.12,8.12,5.14,12.04ZM505.87,192.23l-9.84-42.62c-7.2,33.63-1.17,71.56,19.61,102.37l-9.77-59.75ZM828.07,254.84c21.45-29.68,28.4-68.22,22.13-104.6-5.06,14.87-5.57,28.75-11.92,42.21,1.14,21.43-6.08,40.11-10.22,62.39ZM484.45,215c-6.33-15.01-17.35-26.84-22.03-41.34,1.65,37.28,19.33,71.59,47.23,96.8-10.35-18.57-17.06-36.15-25.2-55.45ZM836.18,269.92c28.3-25.42,45.28-59.57,46.85-96.39-4.77,14.87-15.88,26.65-21.85,41.11-7.77,18.82-14.87,36.79-25,55.28ZM758.46,207.56c-2.22,7.73-1.55,14.31-.76,21.46,11.02,6.55,1.12-17.72.76-21.46ZM443.55,216.79c0-.55-.45-1-1-1s-1,.45-1,1,.45,1,1,1,1-.45,1-1ZM841.96,281.36c-.53,5.37-.73,8.63,1.58,12.1,28.46-19.17,52.18-44.28,59.79-77.99-9.88,13.87-21.96,24.28-33.78,36.16-9.42,9.46-15.43,21.53-27.59,29.73ZM498.82,277.46c-9.82-7.5-15.01-17.89-22.99-25.9l-32.71-32.83c8.16,32.45,31.34,55.92,58.12,74.35,5.23-5.58,2.65-11.74-2.42-15.62ZM583.63,287.95c-3.29-16.39-17.31-11.19-10.18-68.54-22.27,29.81-9.46,63.38,5.88,88.1-2.96-9.33,5.18-15.23,4.31-19.57ZM703.5,438.6c-10.15,7.03-12.47,21.26-3.22,28.71,15.42,12.42,61.69-39.88,71.63-52.86,13.63-17.79,13.41-40.97-1.47-57.84-23.8-26.97-.52-50.48,8.55-74.92,7.86-21.18,7.25-44.92-7.11-62.07,3.76,42.85,5.66,42.82-16.89,75.42-3.76,5.44-1.08,12.52-1.94,18.87-.51,3.79-6.67,2.2-9.09,3.16-5.64,9.58-2.17,22.74,4.93,31.17,15.36,18.22,13.41,41.61-3.05,58.03-12.64,12.61-26.99,21.72-42.32,32.33ZM553.55,285.79c-.15,3.08-.03,6.48,3.56,8.15,1.49-4.4-.34-7.19-3.4-10.15-2.91-12.81-5.59-25.82-3.52-39.99l-1.28-22.27c-6,20.05-8.76,45.8,4.64,64.26ZM790.34,289.04c13.16-16.12,12.92-36.06,8.9-55.45-.82-3.97,2.26-8.64-4.06-9.87,1.75,25.87,1.69,41.18-4.83,65.32ZM911.55,234.79c0-.55-.45-1-1-1s-1,.45-1,1,.45,1,1,1,1-.45,1-1ZM572.78,331.19c-4.58-9.2-10.51-13.43-15.84-18.73-17.45-17.33-23.67-38.13-27.86-63.59-4.93,37.69,11.3,67.65,43.7,82.33ZM771.87,331.51c36.68-17.37,47.05-44.09,44.83-81.93-4.59,17.47-5.9,34.34-16.87,48.2l-27.95,33.73ZM501.17,305.88c-28.49-17.71-45.01-27.53-67.2-50.52,7.54,28.99,39.17,57.18,65.24,69.51l1.96-18.98ZM911.55,256.79c0-.55-.45-1-1-1s-1,.45-1,1,.45,1,1,1,1-.45,1-1ZM847.13,324.93c27.36-15.87,52.56-35.48,63.2-66.61-25.08,20.82-37.59,30.77-65.92,47.34,1.12,6.03-.13,11.24,2.72,19.28ZM921.55,268.79c0-.55-.45-1-1-1s-1,.45-1,1,.45,1,1,1,1-.45,1-1ZM519.55,291.79c2.32,25.08,17.73,46.1,42.26,55.68,2.3.9,4.04,1.33,5.6-.84,4.46-6.2-36.87-17.39-45.86-54.84-1.04-4.32-1.17-9.3-5.54-12.28-1.34,5.4,1.25,9.07,3.54,12.28ZM829.81,281.79c0-.7-.57-1.27-1.27-1.27s-1.27.57-1.27,1.27.57,1.27,1.27,1.27,1.27-.57,1.27-1.27ZM821.35,299.79c-7.53,17.66-22.27,30.51-39.36,40.71-1.64.98-2.79,2.43-3.8,2.76-1.38.45.34,5.51,1.77,5.07,21.96-6.77,40.73-24.49,44.05-48.53.58-4.17,6.21-8.04,2.6-14.26-2.16,4.82-4.14,9.37-5.25,14.26ZM497.81,337.15c-9.01-3.59-15.42-8.26-22.77-12.6-16.18-7.42-29.97-17.1-43.52-28.74,13.26,29.52,40.18,48.52,69.6,60.55.85-7.37-.83-13.04-3.31-19.21ZM905.54,303.75c-12.16,7.85-24.65,14.97-37.84,22.59l-20.26,11.71c-3.12,4.16-3.25,11.83-3.26,18.4,25.58-10.82,50.08-25.87,63.65-50.48,1.61-2.92,6.37-4.35,5.42-10.41l-7.7,8.19ZM923.55,308.79c0-.55-.45-1-1-1s-1,.45-1,1,.45,1,1,1,1-.45,1-1ZM513.81,315.79c0-.7-.57-1.27-1.27-1.27s-1.27.57-1.27,1.27.57,1.27,1.27,1.27,1.27-.57,1.27-1.27ZM833.81,315.79c0-.7-.57-1.27-1.27-1.27s-1.27.57-1.27,1.27.57,1.27,1.27,1.27,1.27-.57,1.27-1.27ZM599.22,405.82c-15.55-15.77-17.88-38.59-3.4-56.17,7.52-9.13,11.06-20.95,6.39-32.48-6.51-.81-12.47-.9-19.19.17,5.17,14.31,2.01,27.68-7.25,38.38-14.58,16.83-16.56,39.19-3.09,57.45,10.23,13.87,55.9,65.91,72.62,54.34,5.18-3.58,6.26-10.45,5.33-16.16-2.23-13.73-29.69-23.48-51.42-45.52ZM609.84,402.06c5.82,5.12,9.46,10.29,15.43,13.85,9.56,5.69,17.38,13.36,28.75,17.36l-.04-116.01c-9.05-1.37-16.89-1.65-24.39.19l-.76,25.03-15.6.62c-1.98,8.13-8.44,13.02-12.62,19.45-8.59,13.2-2.05,29.58,9.24,39.51ZM515.55,320.79c0-.55-.45-1-1-1s-1,.45-1,1,.45,1,1,1,1-.45,1-1ZM826.7,330.4c4.82-3.68,5.57-6.48,4.38-10.82-3.21,2.66-7,6.95-4.38,10.82ZM517.55,324.79c0-.55-.45-1-1-1s-1,.45-1,1,.45,1,1,1,1-.45,1-1ZM521.19,333.97c5.64,14.18,19.87,28.03,37.79,28.12-12.72-10.75-26.8-15.8-35.59-27.95-1.25-1.73-.68-5.74-3.76-6.49-1.95-.47-2.59,2.23-2.13,3.05.51.92,1.72,1.84,3.69,3.27ZM823.25,334.05c-10.41,10.12-22.08,18.35-36.87,26.8,16.8,2.42,30.44-11.67,37-24.8,1.24.59,1.81-.31,2.16-1.27.38-1.04.22-2.59-1.03-2.92s-1.77,1.37-1.26,2.2ZM506.53,371.22l-22.84-9.33c-14.28-5.83-27.4-10.88-41.95-18.26,12.15,18.82,30.82,29.66,50.97,38.49,4.61,2.02,7.84,2.63,11.13-.54,2.83-2.72,5.47-4.07,2.68-10.37ZM840.34,371.06c-2.23,1.09-3.51,5.99-2.22,7.1l7.13,6.15c22.74-6.99,44.79-20.35,58.07-40.31-25.34,13.3-40.6,16.09-62.98,27.07ZM531.55,369.79c6,3.3,11.73,8.89,20.42,8.44-5.26-5.4-12.82-6.93-20.42-10.44-2.27-3.44-5.73-5.57-9.94-7.82,2.23,4.53,6.55,5.66,9.94,9.82ZM793.07,377.75c12.66.69,20.76-7.94,28.24-15.64l-28.24,15.64ZM451.55,370.79c0-.55-.45-1-1-1s-1,.45-1,1,.45,1,1,1,1-.45,1-1ZM551.45,394.91c-6.01-2.55-10.3-5.03-15.83-4.52,5.77,3.24,9.82,7.26,15.83,4.52ZM793.26,394.96c6.79,2.62,11.36-1.72,16.43-4.78-6.75.08-11.09,2.63-16.43,4.78ZM509.57,396.19l-29.65.42c10.71,7.15,22.55,7.54,35.56,7.14-.39-3.3-2.4-7.61-5.91-7.56ZM865.02,396.81l-25.51-1.12c-4.45-.15-8.02,1.26-9.68,7.59,11.95,1.2,24.56.41,35.19-6.47ZM556.53,408.46c-9.57-3.9-17.85-3.87-26.23-5.64,9.9,4.7,16.34,10.76,26.23,5.64ZM814.75,402.97l-26.01,4.19c9.08,6.86,15.65.75,26.01-4.19ZM524.15,422.33c-14.61-5.84-27.09-3.25-40.51-3.5,12.68,5.13,26.57,7.93,40.51,3.5ZM860.63,418.78c-15.92-.67-26.1-1.3-38.94,3.12,14.59,5.01,27.79,1.86,38.94-3.12ZM565.98,423.26c-8.82-5.35-14.76-.66-27.32-2.35,9.42,3.22,17,7.03,27.32,2.35ZM809.32,420.75c-11.66.94-20.04-2.27-29.55,2.2,11.05,5.52,20.23-.53,29.55-2.2ZM569.98,434.52l-22.6,4.36c1.14,3.58,44.79-1.31,22.6-4.36ZM797.74,438.78c-10.07-1.35-18.35-6.01-28.93-3.13,9.24,6.27,19.66,4.42,28.93,3.13ZM531.67,442.59c-3.09-10.88-26.9-3.59-32.27-2.17,10.95,4.21,21.02,4.17,32.27,2.17ZM847.71,440.04l-20.69-3.47c-5.26-.88-10.18.6-13.37,5.79,11.9,2.62,23.7,1.41,34.06-2.32ZM787.71,454.41c-10.73-2.62-19.17-6.69-30.73-6.99,8.21,8.7,19.65,7.35,30.73,6.99ZM588.15,448.58c-10.94-2.05-19.58,4.55-30.66,6.32,9.83-.48,21.09,1.57,30.66-6.32ZM544.91,460.32c-8.03-10.46-15.95-1.9-32.21-.72,9.97,4,20.95,3.67,32.21.72ZM832.95,459.94l-19.08-4.35c-5.09-1.16-10.69.11-12.47,4.82,10.68,2.69,20.44,2.58,31.55-.47ZM599.68,461.24c9.85-10.05-29.13,8.06-28.66,7.7,9.9.18,19.33-2.68,28.66-7.7ZM773.47,468.94l-22.56-10.34c-1.72-.79-3.38-.54-4.32.62-3.84,4.72,27.25,11.38,26.88,9.73ZM611.36,472.47c3.47-10.37-16.98,6.41-22.03,6.71,8.37.73,14.66-3.33,22.03-6.71ZM755.06,478.44l-21.87-9.95c3.31,7.89,11.53,9.5,21.87,9.95ZM559.62,476.76c-3.16-4.46-9.37-5.12-14.85-3.48l-19.42,5.8c11.92,1.01,22.66,1.8,34.27-2.32ZM818.7,478.48c-18.5-4.57-22.42-10.25-33.09-2.38,11.2,5.53,22.22,3.25,33.09,2.38ZM623.55,478.79c0-.55-.45-1-1-1s-1,.45-1,1,.45,1,1,1,1-.45,1-1ZM734.58,488.68c-4.17-4.81-7.44-8.44-13.07-11.1,1.48,7.04,7.37,9.42,13.07,11.1ZM718.81,495.39c-4.48-6.23-6.74-13.02-13.48-14.58,2.26,8.04,8.28,11.03,13.48,14.58ZM619.6,484.93c3.74-3.35.18-5.22-2.75-2.28-1.13,1.21-3.04,2.12-3.15,4-.1,1.67,2.83.41,5.9-1.72ZM639.74,484.36c1.72-11.42-14.13,12.4-16.21,13.1,6.55-2.63,10.17-7.61,16.21-13.1ZM580.86,489.96c-8.38-8-28.13,3.55-34.31,5.84,12.39,1.92,24.94.38,34.31-5.84ZM801.41,495.2c-17.56-3.77-26.38-13.39-36.9-4.93,12.85,6.08,24.2,7.87,36.9,4.93ZM611.55,488.79c0-.55-.45-1-1-1s-1,.45-1,1,.45,1,1,1,1-.45,1-1ZM739.55,490.79c0-.55-.45-1-1-1s-1,.45-1,1,.45,1,1,1,1-.45,1-1Z"/>
  <path class="cls-2" d="M931.17,257.77c-3.52.97-5.43,4.29-8.24,7.97-3.82-3.48,1.53-6.16,1.88-8.76,1.07-.73,2.3-1.34,3.66-1.5,2.17-.26,2.66.4,2.71,2.29Z"/>
  <path class="cls-2" d="M427.53,221.66l2.66.13c.58,2.84,5.6,5.29,2.85,10.19-4.48-2.21-4.04-6.81-5.51-10.32Z"/>
  <path class="cls-2" d="M917.75,221.65c-2.14,3.08-1.05,8.28-5.73,10.3-2.68-4.83,2.26-7.42,3.05-10.16l2.69-.14Z"/>
  <path class="cls-2" d="M421.33,303.36c1.69,2.47,3.6,5.39,3.57,8.34-2.93-2.46-4.63-3.66-6.85-3.55-1.56-.74-4.45-2.98-1.42-4.31,1.56-.68,3.45-.04,4.71-.49Z"/>
  <path class="cls-2" d="M477.41,175.73l2.67.06c.8,1.55,2.79,5.63,1.02,7.54-4.33.26-3.05-5.43-3.68-7.61Z"/>
  <path class="cls-13" d="M895.89,203.79c-.87.98-1.58,2.83-2.34,4h-2c-1.12-2.93.92-5.45,1.43-8,.31,1.72,1.25,3.32,2.91,4Z"/>
  <path class="cls-2" d="M451.18,205.92l2.89-.13c.52,3.15,4.59,5.37,2.98,10.2-2.98-3.01-3.69-7.21-5.87-10.07Z"/>
  <path class="cls-2" d="M443.51,369.89l.22-4.49,2.87.42c.98.14,1.5,1.93.95,2.97-.78,1.47-2.66,1.07-4.05,1.1Z"/>
  <path class="cls-13" d="M421.37,257.66c.3,1.32-.04,2.79.17,4.13h-2c-.66-1.29-2.75-2.13-2.47-4.02l4.29-.11Z"/>
  <path class="cls-13" d="M901,367.22c.07.85.7,1.73.71,2.58h-3.06c-.88,0-1.68-1.16-.14-2.05.76-.44,1.81-.48,2.49-.53Z"/>
  <path class="cls-13" d="M925.67,305.88c-1.17.32-1.38-.39-1.86-1.39-.64-1.34,1.02-1.93,1.33-2.88l.53,4.26Z"/>
  <path class="cls-1" d="M765.63,514.07c3.01.99,6.08,6.57,9.87,5.89,10.92,12.81,13.22,20.63,23.92,34.12-5.74-.39-11.47,2.8-17.85-2.13l-16.06,3.52c-6.24,1.37-12.42-.7-19.73-.66-12.69-18.69-11.44-25.17-32.24-37.03l.05-1.92c8.08-3.03,16.15-1.5,24.83-1.67s18.24-3.05,27.21-.1Z"/>
  <path class="cls-1" d="M631.63,516.34c7.02,1.84,15.18-.88,22.38-.37,1.09,1.2,4,.84,5.1,1.67,1.83,1.39,4.24,2.47,6.45,2.68.84,3.99,5.81,5.32,8.19,7.48,5.13,8.36,9.89,17.1,13.76,26.08-17.06.45-34.52,2.38-53.5,1.01-3.49-8.64-13.79-31.47-20.31-37.12,5.03-2.46,12.23-2.94,17.93-1.44Z"/>
  <path class="cls-13" d="M786.57,219.7c-2.15-10-14.75-14.7-18.61-23.77-11.18-26.25-23.66-49.97-43.18-72.69,30.12,11.67,70.65,59.97,61.79,96.46Z"/>
  <path class="cls-13" d="M577.7,195.67c-4.13,9.6-16.39,14.43-19.15,24.45,1.12-9.37-2.03-19.62,1.4-28.45,11.05-28.34,31.29-54.91,60.44-68.07-18.96,22.66-31.32,45.63-42.7,72.07Z"/>
  <path class="cls-13" d="M501.17,305.88l-1.96,18.98c-26.07-12.33-57.7-40.52-65.24-69.51,22.19,22.99,38.71,32.81,67.2,50.52Z"/>
  <path class="cls-13" d="M847.13,324.93c-2.86-8.04-1.6-13.25-2.72-19.28,28.33-16.56,40.84-26.52,65.92-47.34-10.64,31.13-35.84,50.74-63.2,66.61Z"/>
  <path class="cls-13" d="M841.96,281.36c12.16-8.2,18.17-20.27,27.59-29.73,11.82-11.88,23.9-22.29,33.78-36.16-7.61,33.71-31.32,58.82-59.79,77.99-2.32-3.47-2.11-6.72-1.58-12.1Z"/>
  <path class="cls-13" d="M498.82,277.46c5.07,3.87,7.65,10.04,2.42,15.62-26.78-18.42-49.96-41.89-58.12-74.35l32.71,32.83c7.98,8.01,13.17,18.4,22.99,25.9Z"/>
  <path class="cls-13" d="M497.81,337.15c2.48,6.18,4.17,11.84,3.31,19.21-29.42-12.02-56.35-31.03-69.6-60.55,13.56,11.64,27.35,21.32,43.52,28.74,7.34,4.33,13.75,9.01,22.77,12.6Z"/>
  <path class="cls-13" d="M907.82,305.97c-13.57,24.61-38.07,39.66-63.65,50.48.01-6.57.14-14.24,3.26-18.4l20.26-11.71c13.2-7.62,25.68-14.74,37.84-22.59.8.7,1.56,1.44,2.28,2.22Z"/>
  <path class="cls-13" d="M530.32,216.73c-.23,6.4-.42,11.76-5.59,15.58-8.35-34.62-7.58-71.13,8.25-102.82-.04,17.26-1.58,32.19.4,48.34-2.21,12.68-3.65,24.85-3.06,38.9Z"/>
  <path class="cls-13" d="M820.53,233.85c-2.02-3.91-5.5-8-5.14-12.04,1.35-15.36-1.99-29.52-2.53-44.57-.58-16.31,1.31-32-.72-47.41,17.44,28.48,15.97,76.33,8.39,104.01Z"/>
  <path class="cls-13" d="M836.18,269.92c10.13-18.49,17.23-36.47,25-55.28,5.97-14.46,17.08-26.24,21.85-41.11-1.57,36.82-18.54,70.97-46.85,96.39Z"/>
  <path class="cls-13" d="M828.07,254.84c4.13-22.28,11.35-40.96,10.22-62.39,6.35-13.46,6.86-27.34,11.92-42.21,6.27,36.38-.68,74.92-22.13,104.6Z"/>
  <path class="cls-13" d="M505.87,192.23l9.77,59.75c-20.78-30.81-26.81-68.74-19.61-102.37l9.84,42.62Z"/>
  <path class="cls-13" d="M583.63,287.95c.87,4.34-7.27,10.24-4.31,19.57-15.34-24.72-28.14-58.3-5.88-88.1-7.12,57.35,6.89,52.14,10.18,68.54Z"/>
  <path class="cls-13" d="M506.53,371.22c2.78,6.3.15,7.64-2.68,10.37-3.29,3.17-6.52,2.56-11.13.54-20.16-8.84-38.82-19.67-50.97-38.49,14.55,7.39,27.67,12.43,41.95,18.26l22.84,9.33Z"/>
  <path class="cls-13" d="M840.34,371.06c22.37-10.98,37.64-13.77,62.98-27.07-13.27,19.97-35.33,33.32-58.07,40.31l-7.13-6.15c-1.29-1.11,0-6.01,2.22-7.1Z"/>
  <path class="cls-13" d="M771.87,331.51l27.95-33.73c10.97-13.86,12.28-30.74,16.87-48.2,2.22,37.84-8.15,64.56-44.83,81.93Z"/>
  <path class="cls-13" d="M801.3,194.12c-4.96-14.23-15.84-25.08-20.05-39.33l-11.48-38.84c18.56,21.42,29.79,48.17,31.53,78.18Z"/>
  <path class="cls-13" d="M573.13,120.24c-6.22,43-16.24,41.84-29.18,75.62,2.14-28.28,10.76-55.05,29.18-75.62Z"/>
  <path class="cls-13" d="M572.78,331.19c-32.4-14.67-48.63-44.64-43.7-82.33,4.19,25.46,10.41,46.26,27.86,63.59,5.34,5.3,11.26,9.54,15.84,18.73Z"/>
  <path class="cls-13" d="M519.55,291.79h2c8.99,37.45,50.31,48.64,45.86,54.84-1.56,2.17-3.31,1.74-5.6.84-24.53-9.58-39.94-30.61-42.26-55.68Z"/>
  <path class="cls-13" d="M821.35,299.79h2.66c-3.32,24.04-22.09,41.76-44.05,48.53-1.43.44-3.16-4.61-1.77-5.07,1.01-.33,2.16-1.78,3.8-2.76,17.09-10.2,31.84-23.05,39.36-40.71Z"/>
  <path class="cls-2" d="M790.34,289.04c6.52-24.14,6.59-39.46,4.83-65.32,6.33,1.23,3.24,5.91,4.06,9.87,4.02,19.39,4.26,39.34-8.9,55.45Z"/>
  <path class="cls-13" d="M553.71,283.79l-.16,2c-13.4-18.47-10.64-44.21-4.64-64.26l1.28,22.27c-2.07,14.17.61,27.18,3.52,39.99Z"/>
  <path class="cls-13" d="M521.19,333.97l2.2.17c8.78,12.15,22.86,17.2,35.59,27.95-17.92-.09-32.15-13.94-37.79-28.12Z"/>
  <path class="cls-13" d="M823.38,336.04c-6.56,13.13-20.2,27.22-37,24.8,14.79-8.45,26.46-16.68,36.87-26.8l.13,1.99Z"/>
  <path class="cls-13" d="M509.57,396.19c3.51-.05,5.52,4.25,5.91,7.56-13,.41-24.85.02-35.56-7.14l29.65-.42Z"/>
  <path class="cls-13" d="M865.02,396.81c-10.63,6.88-23.23,7.68-35.19,6.47,1.65-6.34,5.23-7.74,9.68-7.59l25.51,1.12Z"/>
  <path class="cls-13" d="M580.86,489.96c-9.38,6.22-21.92,7.75-34.31,5.84,6.18-2.29,25.94-13.84,34.31-5.84Z"/>
  <path class="cls-13" d="M801.41,495.2c-12.7,2.93-24.05,1.14-36.9-4.93,10.52-8.45,19.34,1.16,36.9,4.93Z"/>
  <path class="cls-2" d="M847.71,440.04c-10.35,3.73-22.16,4.95-34.06,2.32,3.19-5.19,8.11-6.67,13.37-5.79l20.69,3.47Z"/>
  <path class="cls-13" d="M531.67,442.59c-11.25,2.01-21.32,2.04-32.27-2.17,5.37-1.42,29.18-8.71,32.27,2.17Z"/>
  <path class="cls-13" d="M544.91,460.32c-11.25,2.95-22.24,3.28-32.21-.72,16.26-1.18,24.18-9.74,32.21.72Z"/>
  <path class="cls-13" d="M818.7,478.48c-10.87.88-21.89,3.16-33.09-2.38,10.67-7.87,14.59-2.2,33.09,2.38Z"/>
  <path class="cls-13" d="M524.15,422.33c-13.94,4.44-27.83,1.64-40.51-3.5,13.41.24,25.9-2.35,40.51,3.5Z"/>
  <path class="cls-13" d="M860.63,418.78c-11.15,4.97-24.35,8.13-38.94,3.12,12.84-4.42,23.02-3.79,38.94-3.12Z"/>
  <path class="cls-13" d="M559.62,476.76c-11.61,4.12-22.35,3.33-34.27,2.32l19.42-5.8c5.48-1.64,11.69-.98,14.85,3.48Z"/>
  <path class="cls-13" d="M832.95,459.94c-11.11,3.05-20.87,3.16-31.55.47,1.78-4.71,7.38-5.99,12.47-4.82l19.08,4.35Z"/>
  <path class="cls-13" d="M777.45,509.41c-2.63.49-5.13,1-7.83.78-9.18-.72-17.85-3-26.05-7.56,15.77-3.28,20.57,1.09,33.88,6.78Z"/>
  <path class="cls-13" d="M588.04,509.27l-8.66.67c-1.56-1.32-6.25.02-7.83-1.97,11.52-3.49,14.38-9.6,28.82-4.46l-12.33,5.76Z"/>
  <path class="cls-2" d="M787.71,454.41c-11.08.37-22.52,1.72-30.73-6.99,11.56.3,20,4.37,30.73,6.99Z"/>
  <path class="cls-2" d="M565.98,423.26c-10.32,4.68-17.89.87-27.32-2.35,12.56,1.69,18.5-3,27.32,2.35Z"/>
  <path class="cls-2" d="M588.15,448.58c-9.57,7.89-20.82,5.85-30.66,6.32,11.08-1.77,19.72-8.38,30.66-6.32Z"/>
  <path class="cls-2" d="M773.47,468.94c.37,1.66-30.71-5.01-26.88-9.73.94-1.16,2.6-1.41,4.32-.62l22.56,10.34Z"/>
  <path class="cls-2" d="M599.68,461.24c-9.33,5.02-18.76,7.87-28.66,7.7-.47.36,38.51-17.75,28.66-7.7Z"/>
  <path class="cls-2" d="M809.32,420.75c-9.32,1.67-18.51,7.72-29.55,2.2,9.51-4.47,17.89-1.26,29.55-2.2Z"/>
  <path class="cls-2" d="M556.53,408.46c-9.89,5.12-16.33-.94-26.23-5.64,8.38,1.77,16.66,1.74,26.23,5.64Z"/>
  <path class="cls-2" d="M793.07,377.75l28.24-15.64c-7.47,7.7-15.57,16.34-28.24,15.64Z"/>
  <path class="cls-2" d="M569.98,434.52c22.2,3.05-21.45,7.94-22.6,4.36l22.6-4.36Z"/>
  <path class="cls-2" d="M797.74,438.78c-9.27,1.3-19.68,3.14-28.93-3.13,10.57-2.88,18.85,1.78,28.93,3.13Z"/>
  <path class="cls-2" d="M814.75,402.97c-10.36,4.94-16.94,11.05-26.01,4.19l26.01-4.19Z"/>
  <path class="cls-2" d="M755.06,478.44c-10.34-.46-18.56-2.06-21.87-9.95l21.87,9.95Z"/>
  <path class="cls-2" d="M611.36,472.47c-7.37,3.38-13.67,7.44-22.03,6.71,5.05-.31,25.5-17.08,22.03-6.71Z"/>
  <path class="cls-2" d="M531.55,369.79v-2c7.61,3.51,15.16,5.04,20.42,10.44-8.69.45-14.43-5.15-20.42-8.44Z"/>
  <path class="cls-2" d="M718.81,495.39c-5.2-3.55-11.22-6.54-13.48-14.58,6.74,1.56,9,8.35,13.48,14.58Z"/>
  <path class="cls-2" d="M734.58,488.68c-5.7-1.68-11.59-4.06-13.07-11.1,5.62,2.65,8.9,6.29,13.07,11.1Z"/>
  <path class="cls-2" d="M824,299.79h-2.66c1.11-4.89,3.09-9.45,5.25-14.26,3.61,6.22-2.02,10.09-2.6,14.26Z"/>
  <path class="cls-10" d="M521.55,291.79h-2c-2.29-3.21-4.88-6.87-3.54-12.28,4.37,2.98,4.5,7.96,5.54,12.28Z"/>
  <path class="cls-2" d="M639.74,484.36c-6.04,5.49-9.66,10.47-16.21,13.1,2.08-.7,17.93-24.52,16.21-13.1Z"/>
  <path class="cls-2" d="M826.7,330.4c-2.62-3.87,1.17-8.16,4.38-10.82,1.19,4.35.44,7.15-4.38,10.82Z"/>
  <path class="cls-2" d="M619.6,484.93c-3.07,2.13-6,3.39-5.9,1.72.12-1.89,2.03-2.79,3.15-4,2.92-2.94,6.49-1.07,2.75,2.28Z"/>
  <path class="cls-10" d="M551.45,394.91c-6.01,2.74-10.06-1.28-15.83-4.52,5.53-.51,9.82,1.97,15.83,4.52Z"/>
  <path class="cls-10" d="M793.26,394.96c5.34-2.15,9.68-4.7,16.43-4.78-5.08,3.06-9.64,7.41-16.43,4.78Z"/>
  <path class="cls-2" d="M419.55,261.79h2c3.39,1.24,3.86,4.91,5.51,9.54-4.1-1.44-5.6-5.8-7.51-9.54Z"/>
  <path class="cls-2" d="M893.55,207.79c-1.76,2.68-1.97,6.26-5.39,8.13-2.15-4.42.41-7.04,3.39-8.13h2Z"/>
  <path class="cls-2" d="M553.55,285.79l.16-2c3.06,2.96,4.89,5.74,3.4,10.15-3.59-1.66-3.71-5.07-3.56-8.15Z"/>
  <path class="cls-2" d="M907.82,305.97c-.72-.78-1.48-1.52-2.28-2.22l7.7-8.19c.95,6.06-3.8,7.48-5.42,10.41Z"/>
  <path class="cls-2" d="M523.4,334.14l-2.2-.17c-1.96-1.43-3.17-2.35-3.69-3.27-.46-.83.18-3.53,2.13-3.05,3.08.75,2.51,4.76,3.76,6.49Z"/>
  <path class="cls-10" d="M531.55,367.79v2c-3.38-4.17-7.71-5.3-9.94-9.82,4.21,2.26,7.67,4.38,9.94,7.82Z"/>
  <circle class="cls-2" cx="512.55" cy="315.79" r="1.27"/>
  <circle class="cls-2" cx="828.55" cy="281.79" r="1.27"/>
  <path class="cls-2" d="M823.38,336.04l-.13-1.99c-.51-.83-.02-2.54,1.26-2.2s1.41,1.88,1.03,2.92c-.35.97-.92,1.86-2.16,1.27Z"/>
  <circle class="cls-2" cx="832.55" cy="315.79" r="1.27"/>
  <circle class="cls-2" cx="920.55" cy="268.79" r="1"/>
  <path class="cls-13" d="M484.45,215c8.13,19.3,14.85,36.88,25.2,55.45-27.9-25.21-45.58-59.52-47.23-96.8,4.68,14.51,15.7,26.33,22.03,41.34Z"/>
  <circle class="cls-2" cx="622.55" cy="478.79" r="1"/>
  <circle class="cls-2" cx="610.55" cy="488.79" r="1"/>
  <circle class="cls-2" cx="738.55" cy="490.79" r="1"/>
  <circle class="cls-2" cx="450.55" cy="370.79" r="1"/>
  <circle class="cls-13" cx="442.55" cy="216.79" r="1"/>
  <circle class="cls-13" cx="922.55" cy="308.79" r="1"/>
  <circle class="cls-8" cx="586.55" cy="128.79" r="1"/>
  <circle class="cls-2" cx="514.55" cy="320.79" r="1"/>
  <circle class="cls-13" cx="910.55" cy="256.79" r="1"/>
  <circle class="cls-2" cx="516.55" cy="324.79" r="1"/>
  <circle class="cls-13" cx="574.55" cy="118.79" r="1"/>
  <circle class="cls-2" cx="910.55" cy="234.79" r="1"/>
  <path class="cls-13" d="M821.39,555.36c-7.1.33-13.91-.74-21.97-1.28-10.7-13.49-13-21.31-23.92-34.12,7.03-1.99,13.08,2.42,20.17,3.91,3.78,2.81,4.44,10.01,10.49,11.02,3.25.54,5.74-.37,7.38-2.08,1.92-2.02,2.58-4.72.91-7.11-3.72-5.33-14.99-.22-14.71-7.79,5.31-5.31,13.27-5.27,21.12-2.17,5.08,2,9.53,8.16,11.18,15.33,2.32,10.1-3.26,18.65-10.65,24.3Z"/>
  <path class="cls-9" d="M679.66,222.18l-1.14-25.4c-7.97-.93-15.95-.98-23.94,0l-.96,25.02-23.77.83c-.58,8.19-.52,16.19-.12,25.03,8.18,1.88,15.34.05,24.03,1.14l.15,41.01c-8.67,1.21-16.14,1.36-24.19-.18l-.26-24.54c-7.45-1.28-15.53-.8-23.97-.34l-2.29,27.47c-13.8-9.52-19.97-25.89-21.98-41.08,5.09-1.37,9.07-.1,12.9-1.7,5.3-15.34,3.81-31.71,2.87-46.76,11.47-12,10.69-32.08,16.86-46.65,9.39-22.19,34.53-22.94,44.8-45.12,4.83-10.43-1-40.92,8.66-53.18,1.5,6.29,5.39,11.74,5.62,17.75l1.43,37.56c5.65,4.13,8.93,11.13,14.8,14.85,11.49,7.27,23.33,14.05,29.28,26.89,9.12,19.64,8.36,35.23,18.17,47.87l.7,47.07c6.91,2,13.99-1.23,19.64,1.68,3.55,2.94-.93,10.06-.99,14.6-.13,9.09-1.81,19.35-10.69,23.71-4.92,2.42-11.8.6-16.64.05l-1-25.02c-8.27-.6-15.61-.52-23.7-.02l-.57,24.9c-7.98,1.56-15.6,1.4-24.15.22l-.19-40.5c7.47-1.96,14.57-.15,23.65-1.06,1.86-8.39.75-16.99.62-25.63l-23.65-.45Z"/>
  <path class="cls-11" d="M673.92,517.43l-8.35,2.9c-2.21-.21-4.62-1.29-6.45-2.68l-.55-205.42-33.03-.57-1.05,25.5c-4.63,1.1-9.44,1.02-14.69.12l-.57-25.23-24.44-.98c-.65-5.44-1.01-10.58.24-15.31l24.09-.39c1.64-8.37-1.32-16.78,1.31-24.73,2.96-2.58,10.51-1.35,14.09-.41l.93,25.04c11.37-.9,33.58,5.15,33.49-6.15l-.4-45.5-23.82-.7c-.78-5.41-1.37-10.76.65-15.46,8.31-.52,15.46.6,23.09-.67l1.23-23.18c1.02-3.02,10.92-3.08,13.17-.7,3.24,6.55-.13,16.12,1.79,23.84l23.63,1.09c.89,5.6,1.45,10.91-.4,15.41l-23.69.75.66,50.49c11.07,2.42,21.51.85,32.76,1.07,1.6-8.96.19-16.43.84-25.3,4.68-1.35,9.63-1.55,14.82.11l.61,25.03,24.23.34c1.18,5.16,1.13,10.81-.04,15.94l-24.23.34-.59,25.26c-5.21.9-10.02.92-14.65-.09l-1.06-25.6c-11.55,1.31-22.03-1.05-33.18,1.38l-.44,204.45Z"/>
  <path class="cls-9" d="M728.09,336.28l3.42.02c.43,9.85,5.68,17.13,12.65,25.06,6.63,7.55,6.02,20.65.37,29.51-20.32,31.85-58.51,39.45-61.79,54.24-6.47,29.13,10.84,53.05,30.86,70.74l-.05,1.92c-19.02-3.29-22.9,4.71-34.32-.51l-.29-199.5c8.23-2.37,16.61-1.92,24.57-.36l.19,24.47c6.74.81,28.56,4.37,24.39-5.59Z"/>
  <path class="cls-13" d="M703.5,438.6c15.33-10.62,29.68-19.72,42.32-32.33,16.46-16.42,18.41-39.81,3.05-58.03-7.1-8.42-10.56-21.59-4.93-31.17,2.41-.96,8.57.63,9.09-3.16.86-6.35-1.83-13.43,1.94-18.87,22.55-32.6,20.65-32.57,16.89-75.42,14.37,17.15,14.97,40.9,7.11,62.07-9.06,24.43-32.35,47.95-8.55,74.92,14.88,16.87,15.1,40.04,1.47,57.84-9.94,12.98-56.21,65.28-71.63,52.86-9.25-7.45-6.93-21.68,3.22-28.71Z"/>
  <path class="cls-9" d="M609.84,402.06c-11.29-9.93-17.83-26.31-9.24-39.51,4.18-6.42,10.64-11.31,12.62-19.45l15.6-.62.76-25.03c7.5-1.84,15.34-1.56,24.39-.19l.04,116.01c-11.37-4-19.19-11.66-28.75-17.36-5.97-3.56-9.61-8.73-15.43-13.85Z"/>
  <path class="cls-13" d="M599.22,405.82c21.73,22.04,49.18,31.79,51.42,45.52.93,5.71-.16,12.58-5.33,16.16-16.72,11.57-62.39-40.47-72.62-54.34-13.47-18.26-11.49-40.62,3.09-57.45,9.27-10.69,12.43-24.06,7.25-38.38,6.72-1.07,12.68-.97,19.19-.17,4.67,11.54,1.13,23.35-6.39,32.48-14.48,17.58-12.15,40.4,3.4,56.17Z"/>
  <path class="cls-10" d="M679.22,517.25c11.42,5.22,15.3-2.78,34.32.51,20.8,11.86,19.55,18.34,32.24,37.03l-13.85.07c-4.38-12.93-19.94-35.1-35.92-26.87-3.02,1.56-5.53,6.16-9.68,3.23s-8.2-4.64-12.58-3.42c-2.38-2.16-7.36-3.49-8.19-7.48l8.35-2.9c1.22-.42,4.09-.74,5.31-.18Z"/>
  <path class="cls-9" d="M654.01,515.97c-7.19-.51-15.36,2.21-22.38.37,8.08-7.27,15.6-14.88,21.35-24.85,2.3,9.36.88,16.79,1.03,24.49Z"/>
  <path class="cls-13" d="M758.46,207.56c.36,3.74,10.26,28.02-.76,21.46-.79-7.15-1.46-13.73.76-21.46Z"/>
  <path class="cls-10" d="M731.5,336.29l-3.42-.02c.25-6.89-3.1-14.17,1.64-22.15,3.59,8.24,1.48,15.2,1.78,22.17Z"/>
  <circle class="cls-13" cx="622.55" cy="122.79" r="1"/>
  <path class="cls-13" d="M731.93,554.87c-14.39.07-29.15-1.38-44.41-.98-3.88-8.98-8.64-17.72-13.76-26.08,4.38-1.22,8.6.62,12.58,3.42s6.65-1.68,9.68-3.23c15.98-8.22,31.54,13.95,35.92,26.87Z"/>
  <path class="cls-9" d="M529.46,505.41c-17.36,8.52-24.98,25.31-21.53,43.94l-408.53-.42c1.32-11.76-.13-23.13.43-35.13.38-8.29,3.06-16.03,2.97-24.48l-.49-43.52c-.09-7.91-3.31-12.72-7.56-21.61,40.57,4.58,39.4-14.78,52.56-16.6,25.08-3.47,22.36-30.8,21.74-29.72,4.99-8.76,4.86,9.91,15.87,13.14,4.25,1.25,9.05-3.75,12.73-4.46,9.23,3.05,22.94,4.61,28.43,10.06l7.69,7.64,219.02,2.19c4.1,2.4,5.97,8,9.48,10.75.25,1.99-2.47,3.81-1.71,5.57l13.74,16.44c1.09,1.3-1.15,3.14-1.43,4.42l18.07,18.89c-1.24,1.12-4.22,1.36-4.14,2.15s1.71,2.77,2.48,3.19c8.23,4.5,12.06,12.36,17.39,18.45,6.82,7.79,15.71,12.95,22.8,19.11Z"/>
  <path class="cls-9" d="M841.57,549.32c6.58-19.14-2.15-39.27-21.91-45.36,3.98-7.39,13.74-10.19,18.86-17.36s9.95-13.95,17.17-18.54c1.08-.68,2.97-2.56,2.86-3.39-.12-.89-2.65-1.51-4.13-2.27l17.92-18.72c-6.19-5.04,10.61-14.81,11.66-20.81.29-7.15,4.32-17.02,13.34-17.67,13.04-.93,25.19,1.27,38.32,1.18l155.45-1c7.14-4.87,14.96-6.54,22.81-9.64l21.82-8.61c4.67-1.84,12.28,7.81,18.16.39,2.46-3.11,5.33-9.77,8.83-11.37,4.99.95.78,6.88,1.41,9.87,2.73,13.05,15.12,21.72,28.65,22.49,9.88,14.74,25.87,19.98,42.75,12.38,4.62,5.42-1.04,10.03-1.73,15.22-2.92,21.89-2.17,43.54-1.77,65.59.09,4.91,3.31,9.36,2.88,14.01-1.07,11.41-1.43,22.04-1.15,33.21l-392.21.41Z"/>
  <path class="cls-1" d="M553.7,508.75c-19-26.09,18.33,46.31,10.8,32.54l7.39,13.53-58.28.75c-1.6-2.33-3.38-4.57-5.7-6.22-3.44-18.63,4.17-35.41,21.53-43.94,6.78-3.33,20.06-1.58,24.25,3.34Z"/>
  <path class="cls-10" d="M571.55,507.97c1.58,1.99,6.27.65,7.83,1.97,2.91,2.46,5.13,1.21,8.66,1.12,7.82-.21,19.18,1.1,25.67,6.72s16.82,28.49,20.31,37.12c-3.4-.25-7.28.02-12.39.01-5.63-12.08-11.14-34.71-28.15-33.32-3.66-3.77-7.57,1.73-12.12,2.61-4.99.97-7.16-5.55-12.55-6.74-3.59,4.47,2.4,7.66,3.45,10.88.8,10.41,8.35,17.71,13.44,26.52l-13.81-.05-7.39-13.53c7.52,13.77-29.8-58.63-10.8-32.54,5.68.3,12.32-.16,17.84-.78Z"/>
  <path class="cls-10" d="M819.67,503.96c19.76,6.09,28.49,26.23,21.91,45.36-.63,1.82-4.1,2.96-3.74,5.51-4.87,0-9.86.22-16.44.52,7.39-5.65,12.97-14.2,10.65-24.3-1.65-7.17-6.1-13.32-11.18-15.33-7.85-3.09-15.81-3.14-21.12,2.17-1.75,1.75-3.81,3.23-4.07,5.96-7.09-1.49-13.15-5.9-20.17-3.91-3.79.68-6.86-4.9-9.87-5.89,1.49-1.12,2.88-2.38,3.98-3.88,2.7.21,5.2-.29,7.83-.78,4.35-.81,8.34,1.62,13.6.94,7.89-4.03,19.4-9.23,28.62-6.39Z"/>
  <path class="cls-5" d="M588.04,509.27v1.78c-3.53.1-5.75,1.35-8.66-1.12l8.66-.67Z"/>
  <path class="cls-13" d="M621.63,554.92l-35.93-.05c-5.09-8.81-12.64-16.11-13.44-26.52,6.64-.39,12.7.85,18.33,5.56l2.89-12.31c17.01-1.39,22.52,21.24,28.15,33.32Z"/>
  <path class="cls-2" d="M593.48,521.6l-2.89,12.31c-5.63-4.71-11.69-5.95-18.33-5.56-1.04-3.21-7.03-6.4-3.45-10.88,5.39,1.19,7.55,7.71,12.55,6.74,4.55-.89,8.45-6.38,12.12-2.61Z"/>
  <path class="cls-2" d="M795.68,523.87c.26-2.73,2.32-4.22,4.07-5.96-.28,7.57,10.99,2.46,14.71,7.79,1.67,2.39,1.01,5.09-.91,7.11-1.63,1.71-4.13,2.63-7.38,2.08-6.05-1.01-6.71-8.21-10.49-11.02Z"/>
  <path class="cls-6" d="M1248.03,1361.16l-580.36,437.15L89.45,1353.27l.16-746.15h1158.16s.26,754.04.26,754.04ZM437.2,1601.42c3.37,4.56,7.4,9.28,14.78,10.46,1.41,2.81,3.24,4.87,6.68,7.51l208.2,159.5,211.04-158.41c2.71-2.04,4.44-3.22,5.57-6.57,6.69.2,10.05-6.04,15.9-10.4l333.42-248.88-.09-726.52c-3.35-3.38-6.54-1.24-11.05-1.36l-1099.91.69c-5.48-1.43-11.28-1.91-19.01-.48l-.15,719.63,334.63,254.83Z"/>
  <path class="cls-8" d="M883.46,1613.91c-1.12,3.36-2.85,4.54-5.57,6.57l-211.04,158.41-208.2-159.5c-3.44-2.64-5.27-4.7-6.68-7.51l8.3-714.61,207.45,164.42,206.95-161.54,8.78,713.76Z"/>
  <path class="cls-9" d="M899.36,1603.51l-8.71-716.26,327.78-256.39c2.19-1.72,2.6-2.84,3.21-4.11,4.51.12,7.69-2.01,11.05,1.36l.09,726.52-333.42,248.88Z"/>
  <path class="cls-7" d="M121.73,627.44l322.29,256.91-6.82,717.07-334.63-254.83.15-719.63c7.72-1.44,13.52-.95,19.01.48Z"/>
  <path class="cls-1" d="M1221.64,626.74c-.61,1.27-1.01,2.4-3.21,4.11l-327.78,256.39,8.71,716.26c-5.85,4.37-9.21,10.61-15.9,10.4l-8.78-713.76-206.95,161.54-207.45-164.42-8.3,714.61c-7.37-1.17-11.41-5.9-14.78-10.46l6.82-717.07L121.73,627.44l1099.91-.69ZM451.55,749.79c1.57,8.42,6.3,12.67,11.89,18.06,21.89,21.13,73.15,21.19,105.11,33.17,8.7,20.72,26,33.72,45.83,41.83,4.9,2-.14,14.63-4.83,14.69-6.19,1.34-15.11,5.77-13.86,14.19.6,4.05,7.25,7.75,11.52,9.25,36.27,12.71,76.48,12.1,113.16-.38,4-1.36,9.96-7.34,10.51-10.83.35-6.08-7.27-10.34-13.32-12.22-.89-.28-1.58-1.74-3.91-1.98-.25-.02-.8-.16-1.78-.08.58-3.05-2.11-9.56,1.17-12.02,4.74-3.54,12.76-1.7,14.53-7.7.61-.22,1.35.11,2,0,24.04-9.13,24.14-36.89,30.03-39.83l65.17-32.58c5.44-2.72,11-4.9,15.99-7.83,19.27-11.3,22.38-32.73,13.25-51.73-7.32-15.24-17.55-25.67-33.09-29.24-17.29-3.97-33.41,2.11-44.89,15.82s-20.9,28.26-28.89,43.29c-8.11,7.85-10.13-10.09-22.17-15.01-4.88-2-12.21-.43-15.55-4.6-12.43-15.51-2.47-7.45-32.37-11.86,5.08-5.7,10.66-11.14,10.17-18.38-.7-10.26-8.66-17.64-16.59-20.35-9.74-3.33-21.01-1.56-27.15,6.23-.57.14-.75,1.22-1.97,1.96-4.71,2.87-6.24,9.16-5.52,14.51.73,5.44,4.02,10.03,9.34,14.09.24.02.76,0,1.64.15,2.47,4.9-17.43,2.03-24.59,4.14-5.14,1.51-7.09,8.22-11.52,10.45-11.46,5.77-22.09,13.35-27.27,24.76-6.24,5.26-9.3,13.19-12.52,22.19-16.14-2.5-35.33-1.87-46.78-13.03l-17-16.57c-8.71-8.49,6.13-11.49,13.81-32.73,4.82-13.32-3.96-22.52-11.97-31.38-5.6-6.19-8.82-12.75-17.47-16.35l-34.2-14.25c-1.67-.7-3.59-.2-4.24.53-4.75,5.37,20.01,15.46,9.1,52.57-3.77,12.81-7.37,25.41-5.98,39.32-2.63,1.77-5.36,1.61-7.76,2.17-4.09,7,2.03,12.23,3.01,17.51Z"/>
  <path class="cls-14" d="M729.55,835.79c-.65.11-1.39-.22-2,0-1.17.42-3.71-.4-5.17.55-9.66,6.32-19.8,6.48-30.89,7.8-33.16,3.93-66.54,1.9-96.58-14.12-15.19-8.1-24.36-25-25.99-42.1-.69-7.16,2.47-13.16-.19-20.37-4.13,9.08-3.13,17.49-.92,30.03-34.55-11.59-75.59-10.93-104.36-29.72-5.59-5.39-10.32-9.64-11.89-18.06.37-4.95-.99-9.81-1.54-15.62l47.65-.42c3.75-.03,6.9-.4,9.59-1.37l17,16.57c11.45,11.15,30.64,10.53,46.78,13.03,3.22-9,6.27-16.93,12.52-22.19,6.82-5.75,10.64-15.01,20.26-18.43,8.41-2.99,17.11.11,25.74.14l62.17.2c10.18.03,23.84-4.57,33.26-.01,22.15,17.77,30.65,46.54,28.85,73.56-1.24,18.64-11.6,29.33-24.27,40.55Z"/>
  <path class="cls-14" d="M759.58,795.96c-4.83-2.04-2.37-7.43-2.33-12.46.24-33.19-17.28-36.35-10.12-49.81,7.99-15.02,17.53-29.71,28.89-43.29s27.59-19.8,44.89-15.82c15.54,3.57,25.78,14,33.09,29.24,9.12,19,6.01,40.43-13.25,51.73-4.99,2.93-10.55,5.11-15.99,7.83l-65.17,32.58ZM816.73,742.17c6.38-3.2,14.12-6.06,17.31-11.91,6.59-12.1-6.66-34.26-19.7-34.86-23.33-1.07-37.76,33.84-40.68,53.76-.51,3.5,2.87,6.25,4.3,7.69,1.81,1.83,6.06,1.72,8.77.36l30-15.05Z"/>
  <path class="cls-3" d="M711.85,855.5c.99-.07,1.54.06,1.78.08,0,2.1,2.28,2.26,3.91,1.98,6.05,1.88,13.67,6.14,13.32,12.22-.54,3.48-6.5,9.46-10.51,10.83-36.68,12.48-76.89,13.09-113.16.38-4.27-1.5-10.91-5.2-11.52-9.25-1.25-8.42,7.67-12.85,13.86-14.19,3.37.28,5.18.63,7.88-.05l.31-13.79,23.75,4,49.71-.26c5.98-.03,13.63-6.2,18.25-1.78,1.33,2.72-2.23,10.19,2.4,9.84Z"/>
  <path class="cls-3" d="M646.93,700.43c-.88-.16-1.4-.13-1.64-.15-7.21-8.81-10.2-18.7-3.82-28.6,1.22-.74,1.4-1.83,1.97-1.96,9.99-5.27,20.43-6.66,31.07-2.49,6.83,2.68,11.11,12.1,10.01,18.46-1.39,8.01-7.17,13.69-15.19,16.07s-15.18-.04-22.4-1.34Z"/>
  <path class="cls-12" d="M709.4,714.08c-4.09,1.35-5.28-7.02-8.41-7.36-26.58-2.94-52.33-1.39-78.73-.67-2.93,4.58-7.21,6.22-8.83,11.78l95.96-3.74c3.34,4.17,10.67,2.6,15.55,4.6,12.05,4.92,14.06,22.86,22.17,15.01-7.16,13.46,10.35,16.62,10.12,49.81-.04,5.03-2.5,10.42,2.33,12.46-5.9,2.95-5.99,30.71-30.03,39.83,12.68-11.21,23.03-21.91,24.27-40.55,1.8-27.02-6.7-55.79-28.85-73.56-9.42-4.55-23.08.04-33.26.01l-62.17-.2c-8.62-.03-17.33-3.12-25.74-.14-9.61,3.41-13.44,12.68-20.26,18.43,5.19-11.41,15.82-18.99,27.27-24.76,4.43-2.23,6.38-8.94,11.52-10.45,7.16-2.1,27.06.76,24.59-4.14,7.22,1.3,14.39,3.71,22.4,1.34s13.81-8.07,15.19-16.07c1.1-6.36-3.18-15.78-10.01-18.46-10.64-4.17-21.08-2.79-31.07,2.49,6.14-7.79,17.41-9.56,27.15-6.23,7.94,2.71,15.9,10.09,16.59,20.35.49,7.24-5.09,12.67-10.17,18.38,29.9,4.41,19.94-3.65,32.37,11.86Z"/>
  <path class="cls-12" d="M727.55,835.79c-1.77,5.99-9.79,4.15-14.53,7.7-3.28,2.45-.59,8.96-1.17,12.02-4.63.35-1.07-7.12-2.4-9.84-4.61-4.42-12.27,1.75-18.25,1.78l-49.71.26-23.75-4-.31,13.79c-2.7.68-4.52.33-7.88.05,4.69-.06,9.72-12.68,4.83-14.69-19.83-8.11-37.13-21.12-45.83-41.83-31.96-11.98-83.22-12.04-105.11-33.17,28.77,18.79,69.81,18.13,104.36,29.72-2.21-12.54-3.21-20.94.92-30.03,2.67,7.21-.49,13.21.19,20.37,1.64,17.1,10.8,34,25.99,42.1,30.03,16.02,63.42,18.05,96.58,14.12,11.09-1.32,21.23-1.48,30.89-7.8,1.46-.96,4-.14,5.17-.55Z"/>
  <path class="cls-12" d="M507.25,732.38c-2.69.97-5.84,1.34-9.59,1.37l-47.65.42c.55,5.8,1.91,10.67,1.54,15.62-.98-5.28-7.1-10.51-3.01-17.51,2.4-.56,5.13-.41,7.76-2.17-1.39-13.91,2.22-26.51,5.98-39.32,10.91-37.11-13.85-47.2-9.1-52.57.65-.74,2.57-1.23,4.24-.53l34.2,14.25c8.65,3.6,11.87,10.16,17.47,16.35,8.01,8.86,16.79,18.06,11.97,31.38-7.68,21.23-22.52,24.24-13.81,32.73ZM497.56,683.68c-1.32,6.51-5.87,10.91-6.11,18.08,6.33-1.87,11.31-5.7,14.17-10.38-14.89-.38,9.62-22.62-14.16-33.8-9.26-4.35-17.42-8.68-28.36-11.57,18.7,34.01-4.08,53.74-1.27,81.73.28,2.75.71,3.99,4.67,3.88.22-32.25,19.44-47.91,4.52-79.83,15.32,8.12,30.42,12.76,26.54,31.89ZM503.61,702.43l-20.94,11.06c-3.73-14.99,24.81-39.58-1-49.58,4.49,24.92-10.36,44.5-8.76,65.6.25,3.28,6.71,2.04,9.29,1.95,2.89-.09,4.08-3.59,5.93-6.79,4.75-8.22,12-13.85,15.47-22.23ZM505.72,712.55c9.31-5.88,14.16-19.66,8.25-29.56-1.69-2.83-4.51,1.96-5.56,3.12-2.22,2.46,1.91,3.52,3.13,5.6,4.11,6.99-4.63,12.7-5.83,20.84ZM505.21,713.35c-7.89,4.03-9.3,10.75-14.23,16.4.47,10.69,16.14-16.24,14.23-16.4Z"/>
  <path class="cls-12" d="M645.29,700.28c-5.32-4.06-8.61-8.65-9.34-14.09-.71-5.35.81-11.64,5.52-14.51-6.38,9.9-3.39,19.79,3.82,28.6Z"/>
  <path class="cls-12" d="M717.55,857.56c-1.63.28-3.92.12-3.91-1.98,2.33.23,3.02,1.7,3.91,1.98Z"/>
  <path class="cls-1" d="M816.73,742.17l-30,15.05c-2.71,1.36-6.96,1.47-8.77-.36-1.43-1.45-4.81-4.19-4.3-7.69,2.92-19.92,17.35-54.83,40.68-53.76,13.04.6,26.29,22.76,19.7,34.86-3.19,5.85-10.93,8.71-17.31,11.91Z"/>
  <path class="cls-3" d="M497.56,683.68c3.88-19.13-11.22-23.77-26.54-31.89,14.93,31.92-4.3,47.58-4.52,79.83-3.96.11-4.39-1.13-4.67-3.88-2.82-27.99,19.97-47.72,1.27-81.73,10.94,2.89,19.1,7.22,28.36,11.57,23.77,11.17-.73,33.42,14.16,33.8-2.85,4.68-7.84,8.51-14.17,10.38.24-7.17,4.79-11.57,6.11-18.08Z"/>
  <path class="cls-3" d="M503.61,702.43c-3.47,8.39-10.72,14.01-15.47,22.23-1.85,3.2-3.04,6.7-5.93,6.79-2.58.08-9.04,1.33-9.29-1.95-1.61-21.1,13.25-40.68,8.76-65.6,25.8,10-2.73,34.59,1,49.58l20.94-11.06Z"/>
  <path class="cls-3" d="M505.72,712.55c1.2-8.14,9.94-13.85,5.83-20.84-1.22-2.07-5.34-3.13-3.13-5.6,1.05-1.17,3.87-5.95,5.56-3.12,5.91,9.9,1.05,23.68-8.25,29.56Z"/>
  <path class="cls-3" d="M505.21,713.35c1.91.17-13.76,27.1-14.23,16.4,4.93-5.65,6.34-12.37,14.23-16.4Z"/>
  <path class="cls-3" d="M709.4,714.08l-95.96,3.74c1.62-5.56,5.89-7.21,8.83-11.78,26.4-.72,52.16-2.27,78.73.67,3.13.35,4.32,8.71,8.41,7.36Z"/>
</svg>